<?xml version="1.0" encoding="UTF-8"?>
<svg width="1664px" height="1298px" viewBox="0 0 1664 1298" version="1.1" xmlns="http://www.w3.org/2000/svg" xmlns:xlink="http://www.w3.org/1999/xlink">
    <title>CURATORS</title>
    <g id="Page-1" stroke="none" stroke-width="1" fill="none" fill-rule="evenodd">
        <g id="CURATORS" fill-rule="nonzero">
            <g transform="translate(0.000000, -0.000000)">
                <g id="ARTJOMS_VORONA" transform="translate(735.000000, 0.000000)">
                    <g id="Group" transform="translate(0.000000, 447.702867)">
                        <path d="M438.775325,22.7402524 C468.032385,0.446407897 541.483783,-9.57912105 572.709487,11.8868731 C603.551181,33.4430056 606.913447,68.3022233 621.285378,100.370158 C634.845436,93.9715151 657.238424,103.135435 661.169786,115.726351 C666.045765,121.664814 666.264756,138.349154 669.627215,146.332336 C815.932663,169.636679 838.144563,283.778791 855.754505,413.362281 C879.051113,544.856469 931.936641,676.063637 908.97782,811.37329 C911.969305,815.704679 914.327885,819.915092 916.508683,824.915404 C921.734301,833.813016 915.003458,846.40749 904.463331,845.920031 C890.820309,844.720953 877.312401,843.084229 863.605376,842.573049 C825.607657,841.252531 787.575236,841.409975 749.563089,841.893245 L744.379746,841.961056 C552.809709,844.347353 361.250338,849.04997 169.672005,850.297121 C162.721897,850.307164 159.319142,844.069821 160.247166,837.916687 C162.116252,825.528582 163.850223,813.134547 165.660048,800.740512 C120.346866,812.717064 72.1749416,815.730771 26.9897622,802.000078 C23.8287908,798.777629 34.3546952,800.524654 36.0246647,800.034823 C-5.55982811,771.599705 6.8588664,711.696784 10.5425181,668.55131 C33.4480048,520.711228 41.5228823,357.13606 130.021785,230.981388 C168.307821,179.498109 224.438471,138.736559 288.936747,129.564973 L290.726123,129.319808 C309.585357,126.803466 330.603805,125.992882 347.092932,115.726351 C365.63826,100.91126 373.541134,73.5368931 393.0516,73.2806326 C399.494054,73.1960142 408.258131,81.3517909 417.689145,86.8891681 C418.393191,74.7078609 424.953324,64.4279341 426.401725,54.9831283 L426.518973,54.1754244 C428.030349,43.1640857 425.960466,33.2573887 438.775325,22.7402524 Z M753.19927,417.268153 C712.083256,388.685367 605.872524,403.047091 603.441104,404.647613 C598.087483,408.171314 595.782089,408.482945 592.886607,413.058657 C590.027865,413.438187 587.171494,413.83195 584.317494,414.237573 C578.591715,416.109131 582.834789,423.156534 589.448295,420.642146 C585.470414,437.809126 597.176941,450.017763 601.837359,466.989177 C603.350563,472.499677 601.891973,482.410394 601.837359,488.040789 C602.289311,495.219723 610.22102,503.69952 608.899075,510.901836 C604.199334,536.507312 578.695806,561.485015 589.448295,586.316814 C596.571443,600.341643 617.99541,607.493194 632.239337,612.261043 C661.750034,623.594765 713.1697,611.834294 730.316221,586.316814 C739.46192,572.706171 750.057636,538.373295 755.510816,527.723913 L756.719489,510.830567 C759.700236,468.836946 762.351635,423.63064 753.19927,417.268153 Z" id="ðŸŽ¨-Background" fill="#FFFFFF"></path>
                        <path d="M385.888019,70.80432 C388.726611,68.288746 392.927017,71.4495214 391.123118,74.8475032 C387.069679,82.4843636 382.911941,89.7203452 377.471799,96.4712396 C374.173342,100.564236 370.640213,104.435445 367.059675,108.263956 C376.248656,116.218673 384.129158,126.094762 391.57113,135.350556 C401.08723,147.188342 410.084206,159.52782 420.766559,170.359851 C431.301667,181.042668 442.950522,188.510324 457.035408,193.49002 L459.880116,194.478759 C474.029472,199.449513 489.152189,206.162343 497.127663,219.56832 C498.700444,222.211986 495.533547,225.478318 492.871552,223.828548 C479.01282,215.241675 462.729135,213.514813 447.643704,207.840835 C433.071472,202.360181 420.368326,193.925121 409.144329,183.159508 C397.939296,172.411686 388.53105,160.183695 378.717461,148.21426 C369.012911,136.378846 358.564046,126.270295 347.085228,116.256626 C329.37155,128.18145 309.151817,133.370277 288.5918,138.466597 L286.347643,139.022512 C265.762809,144.122449 245.288201,150.045493 225.976289,158.926502 C208.949474,166.755499 192.202371,176.10499 178.332972,188.845346 C163.610217,202.366111 152.151548,219.634738 141.66357,236.522649 C118.203402,274.304886 101.709935,315.697404 87.189852,357.592801 C72.0878282,401.16999 59.4557948,445.6201 49.2581953,490.597993 C44.0716895,513.476551 39.8594314,536.517596 36.3974151,559.719941 C34.7310013,570.894735 33.2506663,582.09325 31.9504843,593.316671 C30.5625962,605.301525 30.2437731,617.631514 26.5696031,629.155002 C24.9944509,634.093639 21.2752427,636.143103 17.5524788,635.968756 L16.7963394,645.43183 C15.7936655,658.048782 14.8589567,670.669682 14.5432151,683.364969 C14.0194527,704.473967 14.256935,725.522198 15.7742856,746.58647 L15.9891788,749.458977 C17.1815062,764.832324 19.845872,782.105695 31.3981736,793.362325 C43.3617451,805.021021 61.7598549,808.687046 77.8847202,808.896973 C115.440663,809.386805 151.592126,791.629533 184.825586,776.051002 C219.052257,760.007546 252.343792,742.199275 284.837677,722.885929 C301.385665,713.050165 317.754685,702.887056 333.915106,692.42744 C341.845388,687.293107 349.719963,682.072194 357.535279,676.767072 C362.01184,673.728458 366.253728,670.396894 370.810884,667.701043 C368.577937,665.620743 367.58117,662.349667 369.451441,659.493702 C356.277764,648.050864 350.794954,627.630951 350.153753,611.108338 C349.635813,597.771408 351.597346,584.47243 353.145238,571.261219 C353.926295,564.599277 354.891061,557.949195 355.892569,551.316904 C356.288431,548.696959 356.590661,545.894366 357.052896,543.128539 C321.481004,562.689765 284.912346,580.110204 247.375366,595.586736 C228.134568,603.520105 208.647244,610.652902 188.890877,617.189124 L184.88657,618.507535 C166.167366,624.639182 147.000282,630.43133 127.648389,633.937083 C126.613696,634.124476 125.773378,632.595681 126.877999,632.108222 C145.737158,623.78109 165.249371,616.757409 184.391796,609.088525 L187.53736,607.806425 L187.53736,607.806425 C187.175869,607.786262 186.801341,607.736449 186.410219,607.642752 C175.183852,604.931483 164.045191,600.753092 153.034534,597.235321 C142.8156,593.970175 131.334412,591.919525 121.782755,586.990376 C121.047921,586.610846 121.459191,585.588486 122.175061,585.539859 C132.910749,584.795031 144.564979,587.926155 155.090883,589.768063 L159.045115,590.461184 C165.669267,591.630002 172.440472,592.886536 179.032249,594.525238 C179.270478,592.31566 180.504288,590.096594 182.259593,588.795517 C201.57506,574.481296 199.613527,545.570579 201.679359,524.251653 L203.211238,508.424024 C205.905735,480.723969 208.756284,453.027629 213.087064,425.534647 C213.318181,424.066339 215.58787,424.48738 215.597352,425.873852 C215.82072,459.954026 213.2498,493.877394 211.961175,527.904387 L211.761636,533.486402 C211.049228,554.482477 210.490889,576.284451 197.276281,592.440193 C199.124033,591.359718 201.622468,591.359718 203.119396,593.141138 C204.958852,595.33174 206.020805,597.79157 205.987619,600.205145 C217.928672,595.195346 229.817575,590.055083 241.648402,584.810449 C279.685543,567.947446 316.925033,549.07649 353.179609,528.657762 C357.081341,526.460044 360.789882,528.186907 362.719414,531.084383 L362.997896,531.044409 C363.044426,531.038128 363.091572,531.033384 363.140166,531.032198 L363.416321,531.020338 C363.426988,531.020338 363.437655,531.021524 363.447137,531.021524 C368.550677,528.215372 375.503155,530.213836 379.882528,534.306832 C380.011717,534.43018 380.121942,534.563015 380.236908,534.693479 C385.781349,532.202812 390.958373,528.840411 395.65657,524.578997 C405.271043,515.85929 413.414663,505.077072 420.514107,494.265204 C433.588227,474.351726 444.693702,452.207322 462.354607,435.815173 C476.704019,422.497219 494.494112,414.205669 513.157711,409.000174 C513.079486,408.454599 513.288084,407.873443 513.664983,407.486797 C514.623823,406.503576 515.307693,406.163185 516.546244,406.759759 C516.644617,406.808387 516.703877,406.874804 516.744175,406.945966 L518.565398,403.832071 C519.559491,402.142448 520.58027,400.440499 520.933914,399.993446 C523.05308,397.323688 525.233878,394.674093 527.447861,392.080241 C531.201441,387.688364 535.478886,383.354603 540.431904,380.308872 C551.276632,373.642186 562.677225,377.414954 573.826553,381.058445 C580.563322,383.260906 587.277571,385.53453 594.002487,387.7702 L594.696194,387.996888 C599.710678,389.609119 605.578493,391.019322 607.820922,396.335724 C608.708649,398.439744 608.846134,400.623229 608.432494,402.741483 C656.059218,390.621421 708.957784,396.189842 755.433664,410.417482 C757.217414,410.963057 758.998794,412.431365 759.374508,414.359853 C764.699684,441.687217 767.071301,469.711969 764.661757,497.505444 C762.582888,521.4965 757.270749,545.007214 747.260414,566.971341 L746.691288,568.211465 C737.283594,588.566742 722.373127,613.659232 699.601688,620.039159 C685.851996,623.891391 670.644488,621.62014 656.621011,620.914451 C642.992211,620.227738 629.06118,620.128112 615.561569,617.983766 C603.538736,616.074254 593.004536,610.681366 585.574416,600.898974 C579.164767,592.45917 575.789271,582.259294 573.024162,572.11279 C571.758351,572.516041 570.500837,572.944199 569.263471,573.429286 C564.040224,575.470447 559.614627,578.765244 555.613337,582.642383 C547.163932,590.830748 540.609686,600.775627 531.769159,608.589206 C523.76658,615.662701 514.647527,621.163518 504.865939,625.392908 C484.597208,634.156687 462.853539,637.658917 441.41375,642.303534 L439.918466,642.629512 C423.778193,646.173376 407.303689,650.524927 393.057391,658.933894 C392.778865,661.409143 391.651725,663.73851 389.845455,665.263748 C392.358113,667.625137 393.422437,671.364696 391.21438,674.872979 C385.046667,684.667787 374.42283,690.24085 364.885348,696.50466 L364.264936,696.914199 C354.882765,703.138495 345.418814,709.239444 335.877824,715.21586 C316.481763,727.367944 296.680357,738.851106 276.59924,749.829019 C244.300916,767.485478 211.30924,784.140926 177.720215,799.248603 C179.736267,809.173912 178.999609,819.40829 180.514924,829.399863 L180.747257,830.82552 C181.394583,834.533293 180.520178,837.635945 177.967734,840.058482 L177.697696,840.30666 L177.702437,840.273451 L177.463023,840.492867 L177.383001,840.559939 L177.409688,840.539122 C177.115458,840.808648 176.811895,841.059494 176.502498,841.274647 L176.108321,841.528273 L176.108321,841.528273 C173.64992,843.023289 170.48483,843.006073 167.96773,841.68632 L167.680249,841.528273 L167.196681,841.250742 C163.870965,839.336486 161.577571,834.593544 162.957163,830.82552 C166.348066,821.564982 167.629285,811.681777 170.760626,802.359565 L168.276413,803.470877 L168.276413,803.470877 L165.002179,804.898942 C129.590374,820.222166 90.2550223,833.125948 51.6712953,822.679852 C34.6231466,818.062629 18.6891011,808.296841 10.1591007,792.379105 C1.76540012,776.716366 0.578998785,758.52975 0.133357524,741.106939 C-0.416582756,719.602992 0.735447313,697.770514 3.56929906,676.451588 C5.47157093,662.140925 7.77207542,647.559847 11.3206125,633.397438 C9.49537966,631.785621 8.15371501,629.474044 7.79933539,626.610963 C6.12462501,613.084267 9.05566448,599.021485 10.8500817,585.564766 C12.6030163,572.425903 14.5396595,559.313132 16.7299389,546.240687 C21.1519802,519.840799 26.2898921,493.496655 32.2716778,467.406322 C42.917289,420.971981 56.9751374,375.363119 73.9000236,330.84422 L75.3821831,326.966341 C91.0216699,286.275072 109.129844,246.451123 134.344861,210.703917 C146.406805,193.601335 159.15736,178.095152 176.200768,165.771092 C192.167999,154.223884 210.178544,145.9098 228.765103,139.55504 C247.371811,133.195536 266.496458,128.934123 285.958892,126.283341 C305.724741,123.591049 326.5881,121.940092 345.026508,113.827633 C342.694002,109.643312 344.695832,103.994241 348.621268,101.399203 C361.831687,92.6652628 374.04771,81.3030757 385.888019,70.80432 Z M808.779886,450.597046 C809.333382,449.756149 810.647787,450.287492 810.404817,451.282572 C803.979761,477.623158 797.948196,504.017116 794.009723,530.860579 C786.900114,579.309627 788.2079,628.39136 788.789109,677.198749 L788.818476,679.72302 C789.11715,706.012607 789.531976,732.304565 790.40074,758.583477 C790.839269,771.864664 791.706848,785.276315 791.235132,798.564618 C790.97794,805.773321 789.05789,812.591819 788.377576,819.713941 C787.781412,825.941796 788.312389,832.265719 788.609878,838.501875 C788.808994,842.648243 782.693279,842.471524 782.277268,838.501875 L781.745343,833.367356 C781.054301,826.869489 780.200177,820.411328 778.072121,814.191776 C775.51324,806.711472 774.285356,799.36519 773.397629,791.511285 C772.03789,779.476248 771.433194,767.320633 770.908403,755.200936 L770.549555,746.818039 C768.358117,696.16945 768.434927,645.283246 771.982711,594.687706 L772.242043,591.07424 C775.755024,543.248684 781.85059,491.574453 808.779886,450.597046 Z M671.822356,149.170913 C670.14409,148.480643 670.731957,145.941348 672.590376,146.383738 L675.97008,147.190475 C700.734666,153.12622 725.049793,159.557357 748.164496,170.602513 C771.293989,181.653959 790.87613,198.152851 806.435647,218.441116 C836.682362,257.877867 849.251579,305.805423 859.174209,353.687909 C870.201459,406.894493 880.241425,460.295586 891.364678,513.485565 L893.430242,523.393366 C903.722672,572.933458 913.440218,622.501629 920.600404,672.628532 L921.114748,676.264117 C928.335306,727.810855 932.678451,781.142503 924.799625,832.82351 C923.241066,843.048292 906.237956,840.501881 906.902862,830.400446 C908.822912,801.196779 910.197763,772.14611 908.869135,742.877211 C907.539323,713.602382 904.795548,684.455644 900.705367,655.436998 C897.263321,631.016242 892.132287,606.899478 887.591543,582.672838 L886.879821,578.846606 C883.077647,558.240959 879.157901,537.655807 875.246801,517.069289 L869.402073,486.246772 C860.642111,440.094661 851.710784,393.902104 841.618787,348.040024 L841.019887,345.341353 C831.143689,301.218427 816.583349,254.999486 786.95899,219.961609 C756.895984,184.403182 713.859601,166.495284 671.822356,149.170913 Z M562.584542,617.176434 C563.307523,615.564616 565.836775,615.741335 566.614276,617.176434 C569.660717,622.801152 569.999274,629.980787 570.575171,636.330542 L570.635715,636.984355 C571.368178,644.732702 572.016491,652.507143 572.413539,660.280397 C573.166151,675.033449 573.526457,689.767526 573.480233,704.539555 C573.432825,719.678068 573.128224,734.798791 572.312795,749.914769 L572.091507,753.965147 C571.347096,767.101217 570.098565,781.753307 563.861019,793.236962 C561.593701,797.412981 555.427021,796.185438 554.113802,791.963163 C549.811467,778.138774 552.02071,761.747811 553.124146,747.58896 L553.980983,736.540904 C554.82945,725.491627 555.638582,714.438178 556.280377,703.376057 C557.159807,688.241102 557.88516,673.093101 558.583252,657.95103 C558.810023,653.03295 559.055231,648.113289 559.314311,643.19521 L559.712763,635.819672 C560.05292,629.649933 560.024475,622.880062 562.584542,617.176434 Z M78.8412121,636.769103 L80.7457846,634.928057 C86.5924543,629.202509 93.9808642,620.384413 102.624092,620.931293 C106.0707,621.149523 108.266906,624.012604 107.55222,627.405842 C106.025662,634.659614 98.6310987,638.424079 93.3082931,642.852723 C87.4770298,647.702408 81.9811827,652.886554 76.4960025,658.120514 C71.6297685,662.761325 66.9498914,667.53427 62.3822863,672.456007 L60.6745525,674.308665 C59.0372767,676.096544 47.3781748,686.649498 48.6387841,689.387482 L48.7074253,689.510038 C49.0582493,690.034264 48.4739378,690.755372 47.8919966,690.571537 C42.8571986,688.979882 43.1712808,684.661539 45.0747379,680.286267 C48.7323149,671.879672 55.1372228,664.102859 60.7302577,656.923807 C66.308181,649.762028 72.3454914,643.093307 78.8412121,636.769103 L78.8412121,636.769103 Z M580.82881,425.948572 C576.935375,416.740219 562.593075,416.933542 554.45064,417.483861 C533.946401,418.870333 511.761526,424.061595 493.517494,433.65185 C474.60305,443.594375 461.862335,459.52516 450.462218,477.140978 L449.928801,477.967938 C438.8174,495.251983 428.116084,515.712222 410.717111,527.596263 C401.85525,533.650957 391.507128,539.179052 380.754848,541.573651 C380.016458,542.872356 378.820575,543.900646 377.252534,544.274246 L376.523614,544.441163 C373.461244,545.117781 368.703661,545.866539 364.594426,545.418767 C364.621686,547.430277 364.600352,549.426369 364.651316,551.332322 C364.795912,556.794 364.857544,562.279398 364.857544,567.744634 C364.859914,579.195774 364.244787,590.669448 364.722429,602.119401 C365.145551,612.246929 366.574922,622.828707 371.434308,631.881689 C374.998253,638.523469 379.702376,642.918904 385.380746,647.115085 C399.349703,638.595817 415.145078,633.403369 431.176312,629.498951 C450.564077,624.777357 470.415262,621.62607 489.362127,615.223869 C498.48118,612.141372 507.248223,608.107677 515.191542,602.629395 C523.621984,596.811908 530.061263,588.941399 536.686621,581.242865 L537.7222,580.046776 C544.483699,572.286836 551.861492,564.861506 561.417341,560.654534 C569.646296,557.03002 580.492209,556.384819 587.687656,550.777259 C591.449532,547.843016 591.764799,543.585161 592.160662,539.225307 C587.552541,539.884741 582.674192,538.827987 578.081479,538.289528 L575.701935,538.010037 C571.359053,537.493693 567.116042,536.926139 562.840785,535.820209 C562.04669,535.615026 562.04669,534.417133 562.840785,534.21195 C567.893362,532.906129 572.9009,532.349879 578.081479,531.742631 L579.298286,531.590781 C583.984971,530.975718 588.911131,530.047412 593.508252,531.079639 C594.333163,527.939026 595.524305,524.940737 597.19546,521.937704 C599.541002,517.718988 603.979637,512.935721 604.579356,508.007758 C604.758324,506.535892 604.415796,504.800727 603.722445,503.49965 L603.483457,503.056156 C603.192112,502.532374 602.846833,502.005644 602.341668,501.679091 C602.285963,501.744322 602.167441,501.819042 601.910249,501.899693 C598.372379,503.014563 595.286077,501.28177 593.648108,498.610826 C586.694445,499.474257 579.105506,499.183679 572.584447,499.471885 L565.991119,499.791008 C558.946047,500.114221 551.580905,500.25573 544.960615,498.831428 C544.036146,498.63336 543.756435,497.093891 544.682089,496.697756 C552.820968,493.21438 562.693818,492.103068 571.407527,490.765224 C576.274025,490.016837 581.176079,489.447542 586.056799,488.789294 C589.306661,488.350462 592.75564,487.625797 596.122839,487.45145 C604.565134,476.934904 600.016274,460.344688 588.267227,455.816417 C583.987411,457.69865 580.139015,456.603942 575.463337,456.201878 C570.795956,455.800999 566.116723,455.529397 561.430378,455.54956 C552.039911,455.591071 542.088836,458.062762 532.789631,456.998891 C531.277295,456.824544 529.871628,454.810662 531.375668,453.581933 C538.49405,447.769113 548.695603,445.873797 557.731247,444.635047 L559.60396,444.384254 C562.633372,443.986933 566.317024,443.406964 570.138161,443.061828 C571.002183,441.375291 572.552446,440.100306 574.881396,439.783636 C575.573562,439.688753 576.269284,439.63301 576.963821,439.573708 L576.953154,439.504918 L576.953154,439.504918 C582.632709,439.232131 582.386184,429.632387 580.82881,425.948572 Z M191.996143,605.543476 C191.895794,605.698451 191.785965,605.846045 191.669111,605.988018 L191.488871,606.196979 L192.422821,605.817449 L191.996143,605.543476 L191.996143,605.543476 Z M679.938953,405.372102 C656.033144,402.80197 632.092963,403.343987 608.116041,404.034258 C606.198361,410.310739 599.523224,415.659744 593.0555,415.861369 C598.121114,423.576508 598.643794,434.018334 595.091701,442.200769 C602.633231,445.204988 609.130586,450.601434 613.074985,458.286922 C618.544758,468.941048 617.828887,480.796624 612.423116,490.643062 C617.037163,494.822639 619.759604,501.610301 619.487005,508.007758 C619.182404,515.14174 614.933404,521.235573 611.402645,527.142013 C607.587435,533.529981 607.459431,539.154145 606.287253,546.308291 C604.572245,556.778582 597.515468,563.128597 588.435527,567.094688 L588.918232,568.994658 C591.25917,578.112988 594.171793,587.734276 600.862518,594.40189 C609.469407,602.979688 622.821669,602.899892 634.193257,603.443465 L634.741921,603.470292 C645.154756,603.991197 655.563039,604.601671 665.972233,605.191803 L673.779385,605.62887 C685.76429,606.288304 697.273924,606.367768 707.057883,598.439144 C723.03104,585.497162 733.981252,564.078609 740.912396,545.117515 C755.459739,505.319023 755.633965,461.643393 748.956458,420.193944 C726.561799,412.971009 703.325637,407.88649 679.938953,405.372102 Z M481.132241,471.399604 L481.307991,471.412976 C486.230193,471.975155 489.611615,475.963781 490.815794,480.694863 C492.565173,487.571477 491.707077,493.788657 495.915779,499.996348 C500.245374,506.379573 502.907369,511.490185 503.536719,519.376112 C503.795096,522.621096 503.676574,525.857777 504.398371,529.033971 L504.921752,531.259283 C505.477549,533.632131 505.932319,535.917631 505.655885,538.465298 C505.403434,540.788735 504.272738,542.59862 501.943788,543.343448 C494.35485,545.772441 488.495141,540.176742 486.534794,533.099689 C484.84112,526.98688 487.102512,519.702271 484.713116,513.961876 C483.38923,510.779752 480.947685,508.118296 479.568093,504.914823 C478.201539,501.739815 477.515299,498.422484 477.296034,494.971131 C476.880023,488.44321 482.649655,480.59998 479.430608,474.685238 C478.745144,473.4233 479.521446,471.361979 481.132241,471.399604 Z M380.326392,404.0358 C385.465489,402.990905 391.295567,400.596307 396.363551,402.586468 C398.968656,403.6112 400.255801,406.789766 398.054855,408.999344 C394.233515,412.832532 388.679685,413.04614 383.532686,413.950022 L383.079649,414.031678 C376.993564,415.158408 370.896812,416.227023 364.791764,417.239894 C353.305835,419.143476 341.792645,420.826455 330.239159,422.25681 C318.372775,423.726304 306.473205,425.034497 294.557042,426.018904 L289.943923,426.39765 C279.878136,427.203217 269.404386,427.81084 259.52798,426.26797 C258.092683,426.04381 258.3238,423.952836 259.52798,423.586352 C270.347818,420.309345 282.216572,419.430496 293.402642,418.044024 C305.2951,416.567414 317.16741,415.007782 329.008904,413.157572 C340.831435,411.309734 352.638558,409.326689 364.401828,407.134901 C369.718708,406.145751 375.027291,405.112717 380.326392,404.0358 Z M565.758787,393.514153 C561.24904,391.916568 556.287725,389.549248 551.401079,390.341518 C542.974193,391.707827 535.474145,399.923471 528.803749,405.334149 L532.153033,404.682691 C549.290469,401.386636 571.98495,397.835906 586.370881,408.739247 C586.407623,408.676387 586.436068,408.613527 586.47755,408.550668 C587.639062,406.785852 588.984282,405.408869 590.452765,403.89905 C590.593015,403.766609 590.728789,403.629821 590.862324,403.490792 L591.654574,402.6466 L589.842488,402.018429 C585.961188,400.645551 581.363086,398.8727 580.636203,398.613926 L580.585841,398.596301 C575.637564,396.919251 570.68336,395.261179 565.758787,393.514153 Z M424.953097,34.0583191 C424.247894,24.9816158 438.365003,25.0563358 439.064281,34.0583191 C440.589654,53.7108702 436.169983,73.1772143 426.657438,90.4067019 C426.58751,90.5324213 426.510471,90.6439083 426.436988,90.7625115 C432.386773,93.8604273 438.404115,96.8326236 444.555387,99.4893354 C452.424037,102.888503 460.440838,105.984047 468.601051,108.609922 C475.982577,110.98673 485.076741,111.924881 491.282532,116.870635 C504.368504,127.298229 499.452227,148.93857 496.934828,162.965771 L496.542088,165.180132 C495.288635,172.398357 494.382066,179.803951 497.423137,186.731481 C500.670629,194.131135 507.237912,199.620091 513.096435,204.914539 L514.279706,205.988161 C519.469814,210.719524 525.400248,216.468863 529.207078,222.882924 C532.682131,215.693198 537.41944,209.817595 542.428164,203.203094 C546.00159,198.482687 543.458116,196.926613 540.890938,192.31532 C538.419763,187.877188 537.213213,183.146106 537.985974,178.082935 C539.411789,168.732259 546.879835,161.977806 554.313511,156.902775 C563.092407,150.912127 572.890588,146.473995 581.965788,140.900831 C600.613979,129.450877 618.775045,116.359455 635.136954,101.819888 C635.588521,101.417824 636.370764,101.944422 636.009273,102.493555 C623.084491,122.166268 607.929132,139.165666 589.303461,153.594932 C581.751041,159.445776 573.817362,164.299033 565.830557,169.40071 L563.534373,170.875187 C560.327557,172.953964 556.327642,175.73226 554.877674,179.27134 C553.418673,182.830622 556.529865,185.51817 558.204575,188.466646 C563.522605,197.829829 560.956864,206.566066 554.652174,214.506546 L554.358549,214.872464 C548.093497,222.598276 543.345521,229.783259 541.074647,239.653417 C536.195312,260.85585 542.991608,282.941029 550.105923,302.845784 L550.38689,303.630358 C554.235287,314.359204 558.325467,325.009772 561.668962,335.910593 L562.588923,338.924239 C565.618357,348.954123 568.099083,358.846512 564.700745,369.157443 C563.545159,372.66454 558.765183,373.493577 556.779946,370.192849 C549.776504,358.553131 548.03068,344.546092 543.64064,331.748806 C539.362009,319.276493 534.449289,307.029526 530.31644,294.506214 C524.99482,278.382108 521.433245,261.025715 523.366333,244.112898 C523.309442,244.014457 523.246626,243.921947 523.199217,243.817576 L521.844542,240.85235 C518.150525,232.82324 514.582664,225.811173 507.864891,219.411408 C500.857893,212.735234 493.252362,206.825236 487.738736,198.743614 C475.76256,181.188919 483.169284,161.660917 484.615874,142.466361 L484.7814,140.112617 C485.044177,136.127318 485.188183,130.71118 482.586602,127.952919 C479.660303,124.847887 472.797902,124.055617 468.915134,122.681006 C458.881094,119.127654 448.992836,114.987216 439.575109,110.01537 C430.610134,105.283102 421.926055,100.055073 413.840511,93.9304032 L409.742331,90.8452579 C403.276245,85.9631241 396.571285,80.6317746 392.237577,73.9860881 C391.737416,73.2210975 392.587216,71.9864381 393.492721,72.352922 C400.72728,75.2907234 407.33723,79.9636897 414.105999,84.0294076 C414.211484,83.7815269 414.333561,83.5312741 414.472231,83.2798353 C422.846968,68.1128574 426.291206,51.3091553 424.953097,34.0583191 Z M656.050566,137.972755 C658.933012,130.063107 672.069947,130.673913 671.546082,140.072031 C671.144416,147.292103 668.081079,153.808984 665.280133,160.364601 L664.98117,161.067171 C662.089242,167.897529 658.749303,174.310405 654.752755,180.570282 C647.116407,192.537345 638.171581,203.643349 628.617554,214.124315 C619.955995,223.626803 608.587401,229.437174 595.487208,228.471744 C589.967656,228.064935 584.395955,226.659487 579.559088,223.900777 C573.814346,220.622584 567.575368,210.779704 560.245992,213.163629 C559.537232,213.393719 558.875882,212.354755 559.488639,211.862552 C567.949896,205.044053 577.553703,215.616343 585.654655,218.16394 C597.861196,222.000754 610.387745,217.758317 618.244542,207.883414 C626.447423,197.573237 633.99725,186.029587 640.891652,174.803794 C644.39278,169.103724 647.586938,163.187796 650.346121,157.090405 C653.130194,150.936085 653.763099,144.24805 656.050566,137.972755 Z M636.374438,89.2951527 C636.018873,88.2028172 637.37476,87.1638531 638.3336,87.7877059 C643.893449,91.4098478 648.711352,96.1954872 653.839783,100.390483 C659.530005,105.044472 665.26171,109.60358 671.082307,114.092711 C679.567269,120.638422 669.726419,132.688507 662.257187,125.53792 C652.035884,115.756714 640.841517,102.966544 636.374438,89.2951527 Z M605.849078,51.010631 C608.107804,42.2947543 621.467069,45.8890113 619.520251,54.503048 L619.456544,54.7656085 C615.769266,68.9940778 621.020802,83.4795399 632.231638,92.7037491 L632.644444,93.0388629 C639.736777,98.7187704 629.688515,108.648231 622.66611,103.022881 C607.335339,90.7450769 600.957691,69.8887032 605.849078,51.010631 Z" id="ðŸ–-Ink" fill="#000000"></path>
                    </g>
                    <g id="Group" transform="translate(294.258495, 0.000000)">
                        <path d="M424.103616,283.346883 C421.550152,260.922386 424.854764,214.050805 425.076191,211.20319 C426.476031,193.20083 418.036255,122.112197 402.081656,128.662308 C375.318241,107.48737 339.671734,102.811599 306.339493,100.578041 C237.103334,95.9378353 163.448698,106.589916 109.986221,153.157945 C83.5469986,177.341784 57.8071555,212.515584 59.8761537,249.139299 C35.8544048,283.854294 1.98912974,331.473897 31.9191799,372.058503 C42.0929686,385.024759 58.2624809,389.853465 71.0431581,399.673297 C96.7502188,420.396544 112.878448,450.137011 138.829562,470.736962 C207.582469,532.483465 324.325449,545.382145 391.875083,475.150729 C444.110003,424.286302 435.663889,348.191203 426.476031,283.346883 C420.298967,239.751575 429.085161,327.094754 424.103616,283.346883 Z" id="ðŸŽ¨-Background" fill="#FFFFFF"></path>
                        <path d="M213.849469,5.48264075 C232.366172,1.74818835 251.379895,-0.575470917 270.289232,0.123997944 L271.74714,0.180590073 C285.97467,0.748895007 303.992715,2.0060434 316.404243,10.2745952 C317.11834,9.55852879 318.26659,9.19101125 319.30808,9.6877527 C334.057387,16.7239352 350.279963,21.8110893 365.809795,26.8662337 C381.268454,31.8964818 397.305982,35.2171806 413.508393,36.5556558 C419.604315,37.0595104 424.821256,43.6380744 420.961336,49.5385091 C420.043212,50.9445601 419.148811,52.3648376 418.257969,53.7886716 C419.747846,53.6333658 421.237723,53.4733179 422.7276,53.3227542 C427.630196,52.8295694 432.528048,58.0589883 432.237427,62.8296031 C432.055937,65.8302059 431.732102,68.7952426 431.252875,71.724713 C433.119965,71.6855902 434.976381,71.9653777 436.769927,72.722938 C445.851533,76.5557903 445.219284,87.3667336 444.539587,95.5920132 C443.597738,107.006397 439.326204,119.096538 431.395219,127.639542 C437.316768,133.78657 441.508826,141.127436 444.009352,149.8459 C445.823064,156.212253 446.832527,162.993544 446.334319,169.620715 L446.175493,171.604857 C445.559375,178.796632 444.334424,186.758837 439.157763,191.932586 C436.500657,194.600052 433.226724,195.572195 430.105812,195.263955 C431.993068,211.83781 433.203,228.506509 434.341759,245.11593 L434.875747,253.054492 C437.415976,291.442138 439.32498,330.079789 438.825625,368.530691 C438.361817,404.464421 431.257619,439.343021 409.206018,468.519172 C389.122335,495.087133 360.286812,514.672261 327.666099,522.117455 C310.086501,526.136437 292.139178,526.420967 274.346063,523.860199 C265.721146,522.615382 257.039292,520.706662 248.853273,517.695389 C239.791832,514.352165 233.279551,509.432172 227.182444,502.058111 C224.298773,498.560766 225.686636,491.115572 231.429067,491.815041 C240.113726,492.867478 248.041808,494.135957 256.367781,496.703148 L257.560037,497.078841 C265.852815,499.734451 274.440959,501.714304 283.110951,502.556038 C300.869667,504.275071 318.898838,502.544182 335.910243,497.161829 C363.608193,488.388829 387.46283,468.839267 402.753048,444.274869 C420.902026,415.157996 422.954165,382.105129 422.692013,348.625467 C422.41107,311.88744 421.215608,275.128133 419.263981,238.428188 L418.931735,232.312094 C417.899734,213.426434 416.90332,194.52892 416.026712,175.631405 C415.753885,169.703703 415.338712,163.728579 414.590215,157.812732 C407.746982,153.805606 401.614289,148.280987 397.616769,141.46413 C389.586142,144.783643 381.140343,147.178434 373.369497,149.087155 C355.369981,153.511592 336.682464,154.585691 318.361486,151.815083 C313.419745,153.855398 308.379548,155.649121 303.262248,157.192695 C301.87913,157.805619 300.496012,158.407874 299.11408,158.998273 C286.776333,164.273928 274.261842,168.743415 261.238467,172.015507 L258.039066,172.812901 C251.185332,174.501491 243.740825,176.164359 236.446726,176.686536 C235.248656,177.148897 233.95569,177.540125 232.542916,177.883932 C225.901339,179.496267 219.008286,180.006049 212.20064,179.43699 C205.568553,178.879786 200.776274,172.181482 204.429794,165.909973 C207.098761,161.333787 209.792639,156.769457 212.509054,152.216981 C203.054979,156.152976 193.292489,159.425067 183.446965,162.199232 C173.506545,164.997107 163.423779,167.356333 153.327965,169.525872 C147.93072,170.675846 142.510937,171.695411 137.125554,172.845385 C133.270379,173.663408 127.351202,174.090203 124.206566,176.627259 C120.732163,179.413279 119.747611,185.910041 118.429734,189.917167 C116.697871,195.12169 115.072766,200.349923 113.590007,205.637434 C110.637536,216.188744 108.217672,226.894174 106.343464,237.706303 C104.469256,248.530287 103.210689,259.46097 102.510827,270.427219 C101.81215,281.381613 102.119378,292.407139 100.993667,303.314111 C100.387515,309.099548 94.1729726,312.075255 89.5823487,308.032562 C89.0438104,307.558346 88.5010539,307.078861 87.9635702,306.594106 L87.162485,305.863023 C83.2349512,302.306401 79.4272244,298.536383 76.2849602,294.292148 C75.7155805,293.509691 75.169925,292.691668 74.6598556,291.86179 C74.5768211,291.86179 74.5056486,291.838079 74.4226141,291.778802 L73.5513338,291.123541 C63.957701,283.986806 47.9299696,274.682479 38.5754169,286.538714 C35.5945208,290.315758 34.068332,295.125149 32.8016505,299.765031 L30.5790364,308.069062 C29.1414015,313.489999 27.7884393,318.941114 26.9968434,324.487863 C25.2056697,336.912327 26.1071876,351.233656 34.6609314,361.192195 C38.0772097,365.175611 42.7864543,368.020908 48.0401683,368.767799 C50.9712875,369.170882 53.8656344,368.672955 56.7718433,368.305438 C59.7255005,367.93792 62.5712128,368.530691 65.5260562,368.246161 C70.2234388,367.7838 72.2755781,373.403262 70.5199907,376.936172 C69.5710245,378.833037 68.4548031,380.469083 67.186747,381.856165 C68.2056995,382.733465 69.179576,383.681897 70.1166801,384.677751 C72.8924061,385.566907 75.3822561,387.475627 77.2457885,390.000828 C78.7522723,392.039958 79.5339831,394.256918 79.6656522,396.592433 C79.8305351,397.173348 79.97288,397.766118 80.1045491,398.370744 L82.6494201,402.498701 C83.2091393,403.404074 83.7668468,404.298446 84.3262623,405.175746 C90.8029564,415.371393 97.9925614,424.002128 106.924706,432.134935 C115.524711,439.959502 124.85898,446.966046 132.938241,455.359673 L133.889971,456.35626 C141.421989,464.288639 149.361287,473.890951 146.41356,485.424978 C145.654387,488.388829 141.513336,490.522802 138.809969,488.519239 C130.115066,482.069899 125.736774,471.85054 118.359748,464.025973 C110.766832,455.964298 102.35662,448.720646 94.7423523,440.682682 C87.5408852,433.095223 81.8589503,424.500055 77.5779266,415.039442 C75.8686013,416.924451 73.3787513,418.264112 69.9268868,418.78575 C63.9958483,419.674905 58.4669341,416.201272 55.8821875,411.067882 C54.2203105,411.802917 52.5252196,412.466819 50.8158943,412.988457 C41.8244398,415.738911 36.1674152,405.744805 39.5599693,398.358888 C41.3736809,394.399183 43.6393376,390.961116 46.4518361,388.068397 C37.6608508,386.859146 28.7168446,382.318526 22.940013,376.651643 C8.4457409,362.413302 6.45291194,341.014297 9.71498316,321.986373 C11.4468464,311.897424 14.4349037,301.68992 18.3149891,292.217452 C18.9899413,290.569551 19.7147142,288.909794 20.5082872,287.273749 C20.0693903,287.261893 19.6186314,287.072207 19.3339415,286.704689 C16.7124225,283.124357 13.5227099,280.196072 11.5761431,276.188945 C9.78496941,272.51377 7.79332666,268.791173 6.38055327,264.961877 C3.47553057,257.125455 2.05208131,248.281323 1.10311514,239.994396 C-0.854127596,223.029312 -0.0961408648,206.170927 2.50284024,189.312542 C6.92620882,160.598752 17.6115679,133.120296 33.3537305,109.008774 C32.4966108,108.558608 31.6752224,108.015243 30.9097346,107.372708 L30.5317424,107.043148 L29.9172868,106.488315 C25.4251182,102.425468 25.8130081,94.810742 29.9172868,90.6957312 L31.2135461,89.3970996 C32.8549539,87.7673514 34.2704319,86.4761556 36.9218433,84.7016387 C37.3132919,84.4396342 37.7130439,84.1930418 38.1175407,83.963047 C36.7296777,81.3999086 36.2480774,78.4028623 37.2148366,75.09639 C40.5836666,63.5776791 57.1668504,63.985505 67.677837,69.0086398 C79.3062313,58.6363465 92.2003091,49.6321668 106.176208,42.3410931 C139.462383,24.984781 177.099568,12.8804131 213.849469,5.48264075 Z M41.7903957,308.86244 C48.0061241,306.835166 56.2621298,311.091256 61.8491682,313.652023 C68.9308282,316.900404 74.9567634,321.701843 80.7929054,326.775956 C83.6991143,329.313013 84.2198595,333.462404 83.497459,337.00717 C83.4251003,337.362832 83.3551141,337.73035 83.2708933,338.097867 C82.4998583,341.879741 78.2769588,344.855448 74.5404045,344.748749 C66.7232957,344.535352 62.9997896,337.789627 58.5740487,332.075322 C58.0533035,333.000044 57.4008892,333.853633 56.5930818,334.493824 L56.0476045,334.920556 C54.2112551,336.318087 52.1868592,337.435042 49.7605253,337.327266 C48.0405241,337.244278 46.3928816,336.805628 44.8733495,336.011316 C41.0774848,334.007753 39.4061182,329.099615 40.4369327,325.104344 C41.0774848,322.590998 42.5483824,320.623001 44.4700389,319.25963 L43.7537201,318.76997 C42.221062,317.703921 40.8231922,316.580152 39.7338078,314.921741 L39.4879665,314.529323 L39.5828631,314.529323 C38.3966554,312.490194 39.1688766,309.716029 41.7903957,308.86244 Z" id="ðŸ–-Ink" fill="#000000"></path>
                    </g>
                    <g id="ðŸ–-Ink" transform="translate(489.303398, 205.244136)" fill="#000000">
                        <path d="M111.184093,224.372991 C103.197791,221.116115 96.0719918,215.683431 90.8623449,208.74353 C89.051141,206.330935 88.5815273,203.783273 88.9614776,201.45311 C89.3887058,198.833006 90.9393391,196.458349 93.054054,194.865502 C95.1753209,193.267721 97.8287552,192.479735 100.394073,192.881428 C102.623184,193.230475 104.842157,194.45054 106.598309,196.980912 L106.965213,197.486926 C110.062438,201.675611 114.098408,205.112378 118.697114,207.327573 C123.129518,209.46266 128.086715,210.459188 133.216603,209.879687 C142.986809,208.776409 149.720926,203.494416 156.878557,196.321559 C157.765766,195.415967 158.653543,194.481987 159.545625,193.532973 C160.108992,192.672695 160.890804,192.119795 161.758828,191.829697 C162.722613,191.507595 163.81288,191.525819 164.811482,191.874188 C165.774638,192.210191 166.635651,192.846902 167.212983,193.694323 C167.761691,194.499728 168.072792,195.494696 167.971848,196.639156 C167.316697,204.072648 163.429027,210.706723 157.906755,215.915874 C151.773566,221.7013 143.643577,225.703698 135.989548,227.107463 C127.557054,228.653766 118.964568,227.54593 111.184093,224.372991 L111.184093,224.372991 Z M139.967502,109.696934 C148.938807,115.148172 162.608321,127.859397 152.957262,141.373682 C141.597041,153.289673 125.24089,139.627175 117.180861,133.448159 C109.707225,128.659387 101.310177,140.97575 108.24422,146.567449 C166.486154,189.672466 190.121963,111.122356 144.505062,103.287613 C139.482479,102.424258 137.617078,108.010533 139.967502,109.696934 Z M35.5973999,59.5546403 C36.5886115,47.2553003 55.3271037,44.4623411 57.1911313,56.6330904 C58.860321,67.5354595 56.8953104,77.550675 51.9827841,87.36637 C47.2888562,96.7438326 35.49105,92.3688045 34.5988355,83.829803 C33.402859,72.3836266 34.9808095,67.2055334 35.5973999,59.5546403 Z M178.237325,54.1095126 C180.849815,50.6891615 184.621828,48.3542969 189.141114,49.6737448 C203.260915,53.7983557 199.099227,73.8371001 194.140367,83.5910388 C191.445903,88.8878325 182.736415,90.2310328 178.800454,85.5672416 C172.385063,77.9617109 169.312803,62.7732144 177.468666,55.2816954 C177.689641,54.8945307 177.935564,54.5038031 178.237325,54.1095126 Z M51.7839069,5.73648487 L54.0142901,5.34623825 C60.9141609,4.15333737 69.4933566,3.00709221 74.3744,8.5523364 C76.9631292,11.4928882 77.8541557,16.9583242 74.3744,19.7729882 C68.2536417,24.7253715 61.486592,22.8061745 54.1516615,23.225405 C48.1069374,23.5721906 42.2974443,24.5721683 36.4748828,26.2360266 C23.7011262,29.8855887 13.2927481,36.5481475 2.38301906,43.8638985 C0.951436405,44.823497 -0.509847133,42.9933716 0.17327322,41.6549217 C6.47104886,29.3238435 18.6757365,19.1946163 30.9006207,13.02017 C37.4253111,9.72451922 44.5654039,6.9906136 51.7839069,5.73648487 Z M165.366003,0.212721909 L167.073126,0.561978708 C185.650716,4.44384988 209.787355,12.1982063 218.584741,30.4394313 C218.919962,33.0188051 218.565769,33.5716163 218.277747,33.9327919 L218.181851,34.0529787 C217.944519,34.3614014 217.755148,34.7865603 216.636747,35.1376177 C216.32639,35.0636977 216.012945,34.9854065 215.696179,34.9024227 C211.663611,33.8460025 208.47307,32.3906349 205.384288,30.8805175 L202.035265,29.2311488 C198.14973,27.3266564 194.229888,25.4914786 190.075755,24.136681 C181.210479,21.2460747 172.091781,19.209823 162.831805,18.1225108 C160.824778,17.8870452 158.892135,17.2099094 157.367419,16.0494088 C155.920158,14.9478612 154.814543,13.4227426 154.310445,11.3955278 C153.657134,8.77198803 153.844881,6.78575322 155.253014,4.41893606 C156.311842,2.64150716 157.826856,1.40951665 159.566476,0.702065838 C161.339943,-0.019149748 163.359018,-0.189175994 165.366003,0.212721909 Z" id="Shape"></path>
                    </g>
                    <g id="Group" transform="translate(280.729369, 217.649001)">
                        <path d="M451.424307,102.250433 C440.555424,115.873707 398.006043,130.995468 375.360135,114.579859 C352.714228,98.164248 343.764816,86.7242015 340.737792,66.2121015 C340.415025,64.0249287 336.473153,62.5701442 334.8067,64.1230144 C325.475468,72.8182384 319.435117,83.8929583 313.450754,94.9960125 C306.701357,107.518469 300.053555,120.117786 287.78809,128.594899 C266.063392,140.277687 226.761474,141.941528 215.15016,136.788177 C192.907321,126.916326 175.31224,105.803633 171.311085,76.7494008 C168.597855,68.1575252 166.052846,62.9576408 163.676059,61.1497473 C160.296416,58.5790357 141.645148,56.288889 139.601914,55.9085469 C102.780211,49.0542932 56.2104032,44.6851279 23.4145925,68.7994469 C18.976312,71.490927 3.78202738,81.6025717 3.55246345,79.1162358 C3.39853327,69.3771341 14.3997625,47.3336981 39.4199411,36.8448307 C70.3603262,23.874116 116.353304,23.11554 142.998151,25.9780291 C144.3382,26.1219922 148.906276,24.9958869 149.229036,24.8556954 C189.59608,7.32211543 236.043472,11.978789 279.23621,19.3482297 C285.425474,20.5531727 340.833235,34.3170304 362.872876,25.9780291 C399.312226,11.0539216 438.163282,0.241901917 477.513548,4.49562971 C477.842587,4.53119862 482.810183,34.781142 478.940448,36.8448307 C475.860922,38.4871086 470.620693,42.6953399 468.75913,44.9983971 C467.094962,47.0572438 466.046244,49.6168377 466.13926,53.1628281 C466.887607,73.6758467 461.053499,90.1810109 451.424307,102.250433 Z M301.600848,83.9468475 C306.221335,77.241437 307.679395,62.1784653 305.74494,51.1895369 C304.765465,45.6254976 302.8636,41.1966355 300.476874,38.9920065 C298.890404,37.5265768 297.080276,36.8367206 295.106225,36.939109 C294.023901,36.9952459 292.851142,37.3040691 291.610339,37.9756631 C274.805317,28.8558851 254.446947,25.5722835 235.149082,26.5166245 C219.786777,26.5137387 208.826113,30.1515246 201.393278,35.8142245 C192.449626,42.6279389 188.420226,52.4230281 188.187093,63.0457686 C187.910457,75.650711 193.071773,89.4405226 201.538382,100.35187 C209.642151,110.795608 220.72776,118.538111 232.754087,120.324466 C246.40646,123.043325 260.318994,120.412942 272.415276,113.978629 C284.821613,107.379388 295.301415,96.7807876 301.600848,83.9468475 Z M436.316569,91.057802 C444.103335,81.8263934 449.281031,69.8169806 450.069168,57.9180012 C450.786429,47.089075 447.896044,36.3624675 439.904322,27.4979064 C432.65925,21.2591097 419.856785,21.1557392 406.389177,24.6299437 C388.974738,29.1223017 370.959173,39.1617026 364.953519,45.6455306 C363.538872,46.3896585 362.225837,47.6854804 361.081964,50.4650277 L361.073782,51.4559341 C359.25448,59.8736188 360.333965,68.4157738 363.481052,76.2959495 C366.899598,84.8558445 372.762653,92.6265073 379.911515,98.5554694 C389.409347,106.404616 399.323972,108.807443 408.603791,107.539931 C419.115215,106.104195 428.889668,99.8625814 436.316569,91.057802 Z" id="ðŸŽ¨-Background" fill="#FFFFFF"></path>
                        <path d="M361.619852,22.6440106 C398.519566,7.5299389 437.962537,-3.36373854 477.894504,0.95287075 C481.196712,-0.307427121 485.295759,0.754501528 486.759197,5.43934111 C500.982725,48.9083332 469.264245,36.819689 469.690489,53.0693355 C473.015193,144.1802 350.949542,159.739712 337.224482,66.7342428 L336.972287,66.8839106 L336.972287,66.8839106 C317.225346,85.3702591 313.065914,115.452298 289.803643,131.529708 C242.87772,165.95924 176.357594,138.680503 167.813768,77.3879767 L167.627418,76.5587838 C164.759446,64.0499817 161.330475,60.9484276 147.185922,61.0100435 L144.951345,60.5646443 C108.200724,53.3005461 59.2619014,46.772835 25.4127215,71.7540532 C18.0505389,76.0492814 17.7048076,87.0914388 11.4840119,91.8891231 C4.66884248,93.2171279 0.470338183,84.993714 0.00857375194,79.3027742 C-1.07124461,22.5679889 100.126207,18.4865718 145.447793,23.3555266 C146.313306,22.456332 148.161548,22.5679889 148.784338,23.6881217 C189.772443,5.88478098 235.95007,8.34836042 279.836635,15.8353137 C307.02272,21.115261 333.87373,33.1421375 361.619852,22.6440106 Z M474.220517,11.4272408 C452.07832,10.3166107 431.597292,11.5317707 409.863579,16.8711099 C398.409453,19.6435277 389.619353,23.1488425 378.655408,27.3644854 C310.269279,57.7601143 302.381396,3.7312277 149.089812,24.9104087 C151.073031,33.4319703 151.437707,41.8691954 151.544268,49.8752346 C182.843585,48.6099003 175.474402,78.5929023 187.200648,99.6529274 L187.561894,100.288337 C204.651914,131.015373 244.979341,145.347847 277.510053,124.966894 C304.649961,109.097356 307.297411,68.8474096 334.318918,52.8733419 C357.742215,51.9492027 348.386157,83.6645214 361.133223,96.6998737 C379.075732,120.719179 417.213922,124.077202 439.712505,101.484492 C450.267967,90.6133833 455.877813,76.8106866 456.188024,61.9816964 C456.776477,52.5074873 455.15675,42.8800469 462.296338,36.2162665 C467.301154,31.115683 476.19308,32.8178572 477.213697,25.1075901 C477.862536,20.5486615 475.972853,15.603685 474.220517,11.4272408 Z M233.581337,23.8452729 C255.576716,22.7583996 278.849643,26.5903703 297.735809,37.4127774 C311.715431,26.251836 315.140776,70.6081443 305.861679,83.4380004 C292.493006,110.879472 261.3689,128.921568 231.400388,122.930105 C184.648515,116.133287 152.073995,23.7633119 233.581337,23.8452729 Z M296.39314,40.3871279 L295.196855,40.2117273 C274.935588,37.110199 219.766576,22.7413422 198.488424,45.4200045 C177.838082,83.0376984 230.227033,146.223641 284.744836,95.8948748 C299.917941,80.3971309 305.798926,61.6043197 296.39314,40.3871279 Z M360.601484,45.1949089 C371.094193,32.7309074 424.570066,7.48456343 443.209957,23.6855084 C477.230155,61.9351331 423.278309,139.302693 378.089332,101.608977 C363.038179,89.0095622 353.136292,68.9350721 357.469774,49.4960762 L357.47644,48.6812182 C357.485824,48.3858421 357.540814,48.453153 357.855762,48.0849227 C358.413431,46.6155651 359.417472,45.6771717 360.601484,45.1949089 Z M442.735168,68.3779753 C454.208238,5.94868676 406.256962,29.681723 366.876744,46.3447376 C368.990204,48.2821041 368.980732,50.927423 368.373334,53.1011696 C364.219823,99.4221646 420.338409,125.671045 442.735168,68.3779753 Z M144.652138,26.3892691 C128.226348,31.9697397 19.5802816,21.989511 9.54341725,73.0832458 C20.1379509,55.8631343 42.0800495,49.0294928 61.8056788,45.3210574 C88.6365603,40.2763024 115.320624,43.1972001 141.77499,48.5056555 L142.321361,43.0130395 C142.908086,37.1869617 143.526701,31.7367135 144.652138,26.3892691 Z" id="ðŸ–-Ink" fill="#000000"></path>
                    </g>
                </g>
                <g id="EDGARS_VANAGS" transform="translate(0.000000, 0.000000)">
                    <g id="Group" transform="translate(0.000000, 470.426291)">
                        <path d="M1102.35752,263.384686 C1086.24729,264.966311 1070.13706,266.545679 1054.02683,268.127304 C976.870519,274.021733 899.7447,286.331783 823.17904,293.719844 C821.272691,290.617513 817.541306,291.128551 815.275823,293.284389 C807.635746,292.615414 799.072986,286.776263 792.152307,292.850063 C791.927566,292.818476 791.702824,292.781248 791.475824,292.759813 C779.153447,269.111025 770.635862,243.887381 762.368993,218.629893 C757.092653,203.101315 749.993535,188.069111 736.874964,177.643022 C714.486657,162.103163 663.189156,130.591376 636.900062,131.915789 C636.464131,127.209271 634.269797,122.358353 630.667159,119.224435 C638.607644,105.688118 606.858125,96.8560633 604.618617,98.4252788 C606.054025,53.2011877 584.779261,13.9268037 537.868169,4.92101835 C495.841532,-3.8354523 436.065972,-5.30652132 413.463089,38.6100783 C410.978511,38.3303044 385.581192,38.1980887 383.123719,38.4733501 C379.303116,33.6348416 337.345385,79.4840033 354.542053,95.445779 C200.797494,163.451133 113.378014,155.336697 70.8239685,346.518135 C65.0710411,364.477812 64.6520509,384.130798 58.5772576,401.689992 C36.9648169,452.151947 19.4349896,505.88545 15.0722965,560.793327 C4.53542686,563.492919 3.32363044,582.069678 15.5285552,584.75686 C20.1905271,585.784578 24.0890559,587.18796 27.4884104,589.849196 C24.8310412,634.845407 35.7146224,737.63297 42.5720577,737.315968 C56.5545852,781.812422 118.924049,794.370451 163.079518,778.733574 C155.467674,793.052806 163.079518,802.056067 163.079518,809.706876 C321.962636,815.717502 495.684552,812.255879 654.523625,820.499055 C674.841826,820.210256 696.212585,825.488732 716.252966,822.450703 C728.474831,819.520975 728.49516,800.3057 716.098244,797.929878 L770.266948,786.165693 C769.056281,785.708804 792.595595,770.05302 810.386302,740.797473 C826.946015,708.0707 815.675615,668.566406 823.17904,632.967438 C881.783459,628.175183 941.356865,626.126164 999.319811,616.202089 C1007.22303,639.846365 1041.43454,611.568898 1052.30908,600.19406 C1052.29553,600.17601 1052.28198,600.159088 1052.26843,600.141039 C1057.53122,598.701557 1061.75161,593.769414 1061.89278,587.930263 C1065.58351,582.657428 1066.35824,575.225371 1062.81885,570.129651 C1079.04088,476.531757 1103.77147,380.96642 1112.7103,286.488592 C1115.87024,285.789157 1118.84609,284.403825 1121.36905,282.269422 L1121.16464,282.065232 C1125.43926,277.300051 1126.27046,269.074925 1119.14423,265.026101 C1113.39582,261.756808 1108.59607,262.770988 1102.35752,263.384686 Z" id="ðŸŽ¨-Background" fill="#FFFFFF"></path>
                        <path d="M416.39199,28.410516 C421.179002,16.381368 437.360976,21.0574272 435.556962,33.694632 C434.477261,41.26432 430.331074,49.2593094 426.60684,55.8937855 C423.5742,61.2940979 420.115096,66.5646765 415.42511,70.6123725 C423.773894,78.4009159 432.439706,85.9051729 441.32552,93.0303814 C451.021392,100.804259 461.217062,107.97008 471.755709,114.556047 C480.99691,120.332023 490.655551,125.449177 499.366491,132.039657 C507.46594,138.166479 514.84446,145.535361 518.599156,155.154844 C522.598921,165.398567 520.860685,175.977511 517.915342,186.214321 L517.576994,187.371707 C514.568047,197.513509 509.359083,209.73895 516.581909,219.29413 C520.258759,224.158585 525.604237,227.603865 530.219761,231.492496 C534.321947,234.949057 538.172541,238.707954 541.703851,242.745497 C549.403912,251.547093 555.666628,261.450862 559.618762,272.486136 L559.97219,273.488678 C563.359657,283.257538 565.835334,295.224719 561.258057,304.815811 C559.944816,307.56504 555.7095,306.671569 554.973905,303.994539 C553.310917,297.929764 553.39779,291.578446 552.003317,285.427933 C550.552434,279.03149 548.138056,272.959946 544.984698,267.215557 C538.883494,256.10271 530.620598,246.610196 520.858381,238.584933 L517.936047,236.208652 C510.320399,229.959288 503.323291,223.329532 501.777485,212.986809 C500.123523,201.921076 504.557404,191.379919 507.408401,180.906449 C509.395186,173.60751 510.043909,166.610907 507.896918,160.014787 C505.27382,164.296004 501.695125,168.359494 498.864436,171.984144 C493.22675,179.205243 487.536039,186.382345 481.859994,193.572985 C476.040666,200.94638 470.364621,208.435971 464.959348,216.119599 C462.541585,219.556982 460.149771,223.014671 457.765855,226.475745 C455.973123,229.07719 453.473001,231.67638 451.518934,234.329719 C451.993912,235.748895 451.957809,237.384669 451.096982,238.546633 C440.734336,252.546607 425.991963,223.335057 422.14701,215.954894 C414.317204,200.924945 408.489979,184.957529 400.634224,169.930965 C392.49416,154.353879 383.224754,139.19194 372.893698,124.970854 C366.64452,116.368936 359.640567,108.289338 353.923907,99.4144148 C340.456416,111.62519 322.73443,119.810832 306.456558,127.233864 C288.571679,135.388563 269.99094,142.050357 251.65385,149.124419 L246.237194,151.228068 C214.641843,163.557749 182.274378,177.103384 156.012601,199.003756 C125.152562,224.739567 106.895802,260.609284 93.3042079,297.753777 C77.6581357,340.515181 64.714136,384.430652 52.6478869,428.317921 C46.4731715,450.773158 40.614356,473.329925 35.1064151,495.958893 C30.2528383,515.895037 26.229627,536.02973 20.6111211,555.760556 C32.0060829,555.357817 45.0019804,559.768768 54.73057,561.042416 C99.0682535,566.845467 142.809112,576.096054 184.669237,592.11198 C189.839842,594.090703 191.335854,599.25411 190.209896,603.439437 C193.191766,602.597859 196.171379,601.745 199.153249,600.907935 C195.886326,595.90267 197.445589,586.95403 197.702432,581.406256 L197.718161,581.024813 C197.982163,573.632239 198.784323,566.23177 199.30443,558.852734 C200.294828,544.786287 201.584196,530.822693 203.298542,516.836842 L203.736054,513.339844 C205.678839,498.123756 207.115055,482.818546 209.23497,467.628405 L209.485433,465.889971 C208.468912,462.003596 207.285416,458.164603 206.043252,454.342531 C202.733072,444.161244 198.061138,434.577861 193.966849,424.716961 C193.483973,423.556125 195.137935,422.889405 195.910762,423.585456 C202.844765,429.822834 208.352706,437.73547 212.777562,446.011361 C212.85428,445.621032 212.921973,445.229574 213.002076,444.839244 L213.506997,442.354223 C214.752113,436.293906 216.266614,429.91763 219.984593,425.002375 C220.380596,424.480055 221.163577,424.370628 221.538144,425.002375 C225.096531,431.023154 225.49479,438.64812 226.041974,445.499195 C226.661364,453.249382 226.73921,461.097716 226.629774,468.869337 C226.416541,484.057222 225.345866,499.287976 224.492936,514.451043 C223.6562,529.351788 222.012958,544.062666 219.895243,558.816924 L219.492692,561.583913 C218.457462,568.606557 217.609937,575.71641 216.244482,582.691025 L215.858714,584.589673 C215.12876,588.04849 214.67973,592.925355 213.226591,596.976435 C250.613348,586.549218 288.057643,576.360035 325.573016,566.350222 C352.687384,559.114458 379.829958,551.986993 406.961249,544.814404 C408.392952,542.234392 410.175531,539.824727 412.400369,537.671145 C419.730375,530.573011 429.444298,527.406377 438.353804,532.869865 C439.078118,533.315472 439.139041,534.450361 438.353804,534.880175 C436.646817,535.813131 434.936444,536.769777 433.256533,537.767035 L449.547944,533.354956 C461.724758,530.055204 474.047112,525.931924 486.510492,523.631687 C509.466263,512.304229 534.156099,504.10505 558.338239,496.001761 L561.187838,495.037964 C573.569687,490.817012 586.376856,486.091707 599.169433,483.751502 C608.534738,482.039015 619.528055,484.105732 623.294034,493.699268 C628.061866,496.841083 632.547645,500.533421 636.876603,504.164841 C640.006268,506.788849 643.00619,509.578691 646.05688,512.295204 L646.619289,512.788894 C649.113279,514.952604 651.088948,516.401718 651.701335,519.845714 C652.017235,521.62476 650.886765,524.029913 648.692388,523.794136 C641.978387,523.075523 636.518959,515.293749 631.965487,510.647021 C628.447716,507.055085 624.901739,503.341313 621.690842,499.394019 C619.819135,500.412712 617.253576,500.229957 616.062182,497.973716 C609.884082,486.276235 592.959743,494.38178 583.595567,497.155829 L570.181174,501.125946 C563.474411,503.113839 556.770247,505.111559 550.077456,507.144207 C531.683054,512.729531 513.37891,518.980446 494.817532,524.11001 C496.478263,525.935308 496.249236,529.182039 493.094749,530.417331 C478.565609,536.117723 462.626201,539.065502 447.531826,542.976695 C438.001802,545.448407 428.477419,547.934785 418.95642,550.435828 C417.323895,553.080142 416.149424,556.071917 415.655266,559.554425 C413.838335,572.359191 417.342552,587.133104 420.755982,599.517709 L421.270164,601.365506 C424.07612,611.322555 428.204292,623.52863 436.795741,629.81602 C438.893091,631.349136 441.563573,632.416338 444.255492,632.657756 C461.073779,624.001688 477.890937,615.346748 494.718249,606.707602 C497.835505,605.106799 500.715835,607.273918 501.415328,609.850545 C507.348606,608.876977 513.268345,607.342734 518.66008,605.512922 C527.719638,602.436538 534.79354,596.569184 543.286736,592.511335 C559.720391,584.661782 576.502368,594.303735 591.216091,601.634115 L594.607235,603.300693 C601.205424,606.501785 614.932509,612.651372 618.098608,603.896326 C621.160581,595.426398 611.479377,586.37436 605.226814,582.562441 C597.773832,578.017244 589.09561,575.585016 580.672364,573.558912 C575.862788,572.40146 570.994544,571.457223 566.096967,570.767942 C560.541641,569.986154 554.803544,570.103479 549.454682,568.301871 C546.796609,567.408399 546.388196,563.186973 549.454682,562.489794 C557.688486,560.616109 567.515847,562.659897 576.108136,564.748442 L580.59903,565.854977 C589.255816,567.979228 597.996091,570.644977 605.881178,574.882197 C611.614762,577.964222 617.666502,582.645922 621.619764,588.376773 C625.052833,585.188011 629.325642,585.295817 633.77653,586.478476 L636.192359,587.149983 C640.181579,588.255397 643.415087,589.016256 647.296788,588.250424 C647.815766,585.426738 648.341514,582.601925 648.904493,579.777111 C654.436126,552.009556 660.502533,524.348043 667.196227,496.834314 C678.742224,449.376836 692.102402,402.440218 707.164288,355.984586 L708.676144,351.340625 C712.149915,340.714858 714.945629,329.138087 720.546084,319.376461 C725.843049,310.14618 734.329475,304.829348 744.412324,302.013559 C755.85467,298.818722 767.878047,297.146848 779.55055,294.988754 C782.154468,294.508174 784.765155,294.051286 787.37133,293.578603 C785.168867,289.602354 783.524924,285.088766 782.044119,281.624925 L781.784414,281.024879 C778.603189,273.772531 775.745467,266.389514 772.985894,258.967112 L770.921626,253.387119 C765.939074,239.950308 760.795522,226.734164 753.790039,214.166823 C746.416032,200.940739 736.633288,190.127705 724.438422,181.178326 C699.574841,162.92985 669.606092,153.621728 645.490517,134.119911 C644.502201,133.321202 645.769186,131.955048 646.772168,132.460446 C663.055681,140.641575 680.634384,146.204337 697.571133,152.86476 L700.912174,154.182893 C714.298842,159.48919 727.893968,165.265753 739.4809,173.856824 C752.398951,183.436823 762.573185,195.333981 770.22022,209.481739 C777.75669,223.427563 782.577548,239.037366 787.894821,253.933067 L789.316962,257.902092 C791.461683,263.853721 793.676918,269.787569 796.215399,275.579442 C798.23039,280.177661 801.990727,285.426805 803.699971,290.679334 C808.376418,289.868215 813.051737,289.05484 817.732697,288.273053 C919.121908,271.346734 1021.64385,261.401225 1124.39368,258.491802 C1128.41351,258.377862 1130.4928,262.213471 1129.90049,265.71967 C1120.03991,324.022061 1111.27707,382.524129 1101.66243,440.870517 C1097.46547,466.335579 1093.18503,491.781463 1088.80417,517.214938 C1086.58497,530.100329 1084.01942,542.936083 1081.91755,555.840652 C1080.22072,566.262229 1078.98871,576.76503 1076.07566,586.945188 C1073.46272,596.072811 1069.45304,604.874406 1062.86766,611.838293 C1055.76894,619.344807 1045.86096,622.978483 1035.88755,624.695482 C1010.5693,629.052283 984.600066,630.831329 959.07648,633.733983 L823.186484,649.192617 C825.172297,667.240988 825.320705,685.008565 824.40957,703.267049 L823.890296,713.23439 C823.465787,721.251519 822.958303,729.280705 821.806678,737.21534 C820.362564,747.168746 815.809093,755.596934 809.10186,763.031248 C802.94294,769.858632 795.460624,775.684246 788.182515,781.266186 C780.627994,787.062469 772.821881,792.656818 763.939452,796.240856 L762.786558,796.6984 C754.994135,799.740553 740.376351,804.451391 729.725233,802.729805 C731.117449,809.704973 733.811625,817.204718 731.423195,824.106559 C730.315289,827.311549 726.123974,828.910095 723.556159,826.183428 C718.469042,820.778603 718.071911,813.639857 716.866978,806.589105 C715.613532,799.25181 714.532703,791.888568 713.572593,784.507276 C711.715553,770.235424 710.27031,755.832711 709.829179,741.440151 C709.375637,726.659517 709.55051,711.858577 710.347029,697.093737 C710.756571,689.51164 711.264267,681.934055 712.226634,674.400467 C712.637304,671.18758 713.056999,667.972437 713.53649,664.767447 C713.711363,663.598714 713.905416,662.435622 714.114136,661.274786 L701.917218,662.650749 C683.215148,664.738444 664.504187,666.623689 645.669903,666.916516 C643.439424,666.95036 641.72341,665.935052 640.601965,664.456086 C639.407187,666.402094 637.32676,667.794194 634.347147,667.782913 C608.045093,667.684766 583.551566,659.085105 559.628916,648.950071 C547.570564,643.839685 535.699496,638.307383 523.623093,633.240994 C512.351107,628.511913 500.300652,625.137705 489.300566,619.81072 L460.395722,634.970403 C460.183618,635.71609 459.911718,636.421165 459.622895,637.011172 C457.741034,640.852422 454.030338,642.936061 450.240667,644.505276 C446.603305,646.014701 442.836199,646.483999 439.166118,646.102695 C417.244638,657.589217 395.31808,669.064951 373.376925,680.513717 L351.430554,691.952893 C307.705491,714.717235 264.153044,737.854984 220.152697,760.084597 L216.913382,761.715121 C201.715493,769.335184 185.396033,777.059349 168.530135,782.822992 C168.23003,787.0918 168.41957,791.243283 168.777214,795.761405 L168.863308,796.74564 C169.366169,802.084848 170.444383,808.774937 166.160886,812.57604 C163.932663,814.552507 159.952324,814.560404 158.437133,811.579909 C155.687675,806.175085 158.156207,797.654391 159.027188,791.782524 C159.336319,789.694373 159.713143,787.54756 160.27048,785.46505 C140.935148,791.22072 121.014273,794.01169 101.33822,790.779625 C82.1811458,787.635554 67.344003,775.56805 55.3826777,760.807722 C42.7590909,745.231764 33.7886611,727.079178 28.9757,707.620229 C23.4982208,685.477482 23.140577,662.610481 23.2691934,639.92962 C23.4057073,615.77769 24.2992528,591.506179 27.2371222,567.516699 C24.0183275,566.75973 20.4486583,566.10542 17.1960172,566.331044 C15.5849276,568.908799 12.4597747,569.994051 9.63585496,569.658999 C3.49498596,576.431106 19.071109,583.352125 24.0487893,585.084918 C25.7772132,585.687334 25.5921861,588.494098 23.5986319,588.409489 L22.3429039,588.349804 C14.6514609,587.94065 6.70516342,586.627545 2.18287303,579.480416 C-1.44095045,573.75182 -0.352223904,566.965048 3.96770764,562.293501 C6.82096094,535.317886 13.642143,509.049602 19.9906034,482.735065 C26.2206013,456.906748 33.1489637,431.244265 40.4925089,405.711516 L43.7846653,394.283558 C55.3469396,354.248179 67.432396,313.889774 83.3815655,275.445196 C91.3456284,256.249099 100.520265,237.406103 112.956568,220.668181 C124.548967,205.065147 138.235332,191.713842 153.967148,180.310801 C183.295089,159.050559 217.708393,146.204619 251.520921,133.965846 L253.034495,133.41822 C270.556787,127.080439 288.036207,120.667075 305.358805,113.800206 C320.678824,107.727534 335.35576,100.028112 350.603573,93.8640624 C350.108287,92.9649504 349.629924,92.0556854 349.169613,91.1362672 L348.887726,91.3733396 C348.839547,91.4116539 348.790157,91.4487566 348.738635,91.4837283 C347.205392,92.5464177 344.947836,92.024098 343.684236,90.8316747 C340.11634,87.4653404 341.324256,83.7284728 343.705806,80.2373141 L344.015931,79.7930165 C346.92898,75.7126049 349.527257,71.3986725 352.215791,67.1704772 L353.899373,64.5263177 C358.412179,57.4624578 363.154578,50.3514553 369.17172,44.5133068 C371.958408,41.808074 375.009099,39.784226 378.241432,38.275929 C377.96502,37.6915626 380.388424,36.4968831 381.075506,37.0981713 C391.316305,33.3505553 403.098244,34.1357271 414.26305,35.1690854 M816.611253,649.939432 L802.373192,651.558285 C786.709068,653.34049 771.038852,655.063806 755.366686,656.770391 L721.32568,660.469308 C721.238807,662.409675 721.003011,664.307174 720.960138,665.772602 C720.73788,673.327625 720.572033,680.886031 720.415211,688.44331 C720.100439,703.591711 720.445673,718.754778 721.443014,733.873847 C722.409752,748.523901 723.682894,763.175938 725.661244,777.726778 L726.066435,780.635567 L726.301104,782.165298 C727.915578,782.320978 729.501847,783.0881 730.820729,784.664085 C733.699931,788.101467 744.125757,784.759975 748.197482,783.311468 C754.893432,780.928878 761.19902,776.903744 767.01722,772.867329 C772.699171,768.926075 777.815469,764.330276 782.732009,759.48906 L786.754706,755.510876 C790.756258,751.534788 794.762143,747.298986 797.213869,742.297522 C800.538716,735.515263 800.968565,727.189734 801.943342,719.802801 C803.143762,710.71692 804.573209,701.632166 806.083888,692.591409 M403.284399,554.565876 L401.807567,554.95395 C348.159861,569.207751 294.592259,583.882342 240.779834,597.506652 C214.14947,604.250556 187.392746,610.503727 160.729663,617.117897 L156.412841,618.197455 C135.378518,623.513256 114.091681,629.911028 97.9840398,645.166355 C97.389471,645.728159 96.5263872,644.865147 97.0859814,644.268371 C114.445811,625.789759 139.135647,617.967372 162.84168,611.18624 C167.223663,609.932898 171.611288,608.708887 175.994399,607.462314 C143.754555,595.970152 111.005886,585.971621 77.5013139,578.840771 C68.8738612,577.004191 60.1459974,575.656087 51.5253139,573.812739 C45.5131742,572.526343 39.6417678,570.667009 33.6931408,569.124573 L29.0140593,567.947641 L28.9519177,582.73462 C28.8740456,603.678248 28.9112306,624.604802 29.9798105,645.545403 L30.1820909,649.424519 C31.4288374,672.728455 33.3749035,696.516258 41.6455436,718.489669 C48.3663146,736.345559 59.0787069,753.166963 73.0877406,766.173063 C80.1763094,772.753389 87.7973952,777.876184 97.2179824,780.40543 C105.965026,782.753049 115.129508,783.02831 124.121374,782.402203 C167.251869,779.393506 205.644992,755.965829 243.110724,736.568927 C304.391926,704.842797 365.679897,673.13246 427.023151,641.528167 C425.364676,640.394406 423.803228,639.088042 422.382806,637.620357 C414.156998,629.125611 409.817887,617.496945 406.968018,606.234919 C403.934251,594.247512 402.120082,581.399349 401.909106,569.023868 M481.337744,653.775155 C481.879287,653.484099 482.506574,653.848482 482.531394,654.459924 C482.720934,659.144658 480.131756,663.765241 478.197202,667.985575 L477.992589,668.436207 C475.642519,673.663917 473.069063,678.821684 470.407606,683.898226 C465.088077,694.041156 459.559828,704.075788 453.790142,713.968275 C442.187588,733.869448 429.294358,752.932426 414.054443,770.260356 C410.612262,774.174934 404.950884,769.155926 407.159927,764.941268 C417.810268,744.62382 430.226263,725.440132 443.006672,706.423406 C449.404774,696.90207 455.798363,687.371709 462.259644,677.893241 C464.955136,673.938239 467.6851,669.997338 470.488712,666.116238 L472.18003,663.79512 M1117.59958,270.128364 C1063.76459,271.753986 1009.99278,275.264696 956.413895,280.76654 C906.585194,285.882566 856.939263,292.693029 807.57313,301.183263 C797.262194,302.956292 786.963794,304.802179 776.678582,306.720924 L770.509043,307.880914 C760.221987,309.830306 747.654811,310.634656 738.495969,316.12973 C728.839585,321.922629 726.230026,334.029617 723.016873,344.013482 C719.239612,355.75496 715.55825,367.530281 711.97617,379.333804 C697.751648,426.199311 684.758006,473.47094 673.166735,521.055059 C667.412844,544.674517 662.307675,568.425964 656.928351,592.131158 C652.149236,613.193166 646.875964,634.017141 641.366895,654.86819 C642.046079,654.34023 642.878701,653.938619 643.88394,653.724276 C671.240662,647.904761 699.165962,645.374672 726.93158,642.159695 L729.618053,641.846296 C758.341254,638.468704 787.064455,635.11593 815.80458,631.884993 L1006.08803,610.487933 C1017.31038,609.226695 1029.33262,609.05522 1040.25374,606.044267 C1058.82161,600.922442 1063.1738,580.165327 1066.28913,563.634693 L1066.38317,563.135079 C1075.77556,513.189804 1083.25223,462.810203 1092.01168,412.738578 M645.795135,596.808345 C638.407589,596.320997 628.296535,589.555659 622.691568,590.040751 C625.63395,594.977406 626.961858,600.607855 625.266152,606.620737 C620.546833,623.353019 599.204408,614.695822 588.924122,609.584309 C580.495234,605.391085 572.356298,600.260394 563.02484,598.296336 C552.453475,596.073939 545.291572,600.277315 536.36063,605.122593 C529.024982,609.101473 521.036098,611.959002 512.820444,613.437968 C508.451999,614.225396 504.302428,614.308877 500.160754,614.002028 C499.911419,614.20509 499.630493,614.393486 499.310081,614.561576 L497.119089,615.711131 C507.025936,616.164635 517.116683,619.221842 526.336448,622.020708 C535.890164,624.919527 545.269143,628.414714 554.598155,631.988744 L563.775804,635.51593 C586.413897,644.184217 609.847415,652.415586 634.347147,652.343457 C636.108289,652.338944 637.551275,652.826292 638.687386,653.621617 M604.462224,544.380077 C611.76064,543.487734 618.497206,544.44438 624.328945,549.194895 C631.362231,554.923491 636.087191,564.424521 646.198246,565.048371 C649.146269,565.229999 649.831095,569.374713 646.901123,570.241109 C639.374807,572.469147 633.281323,568.397761 628.15359,563.111388 L624.705979,559.509624 C619.638642,554.263031 614.965119,550.206967 606.366649,550.520437 C597.158166,550.856616 587.933888,552.984252 578.7852,554.066119 C568.421426,555.291258 558.059909,556.335897 547.663416,557.237265 C547.180541,557.279006 547.098181,556.518653 547.550595,556.406969 L559.195122,553.509213 M597.417204,514.545579 L598.620902,514.425118 C609.219066,513.396118 618.911466,513.356192 628.376525,519.056933 L630.191912,520.154655 C638.725628,525.341025 648.014069,531.451216 653.350671,539.848192 C654.223909,541.223371 652.780923,542.839967 651.319886,542.49025 C641.063292,540.028691 633.565182,532.504128 624.939985,526.872551 C615.259909,520.55282 605.260548,521.595204 594.22323,522.576668 C583.536787,523.527674 572.855984,524.834037 562.274465,526.615339 C552.331515,528.287214 542.356974,530.927016 532.313613,531.768593 L532.315869,531.748287 C531.168476,531.746031 530.514112,530.023391 531.68407,529.439025 C541.876355,524.350074 553.680859,521.941537 564.767818,519.61648 M919.369777,409.805465 C918.345359,404.906038 924.372278,402.634003 927.165736,406.520378 L927.759824,407.340011 C933.794866,415.60729 942.52284,425.981219 942.078469,436.495666 C947.383332,436.611862 952.883375,439.834902 954.950263,444.621517 C955.90586,446.836018 956.229658,449.460026 956.018682,452.17654 C960.840669,452.551076 966.099274,455.716581 969.047297,458.798606 C973.933592,463.907864 974.319442,471.127834 970.814081,477.097848 C963.17116,490.111474 946.474553,494.845579 932.37943,495.902399 L931.877158,495.938587 C917.318684,496.94487 896.340672,496.672993 886.358234,484.183572 C876.728927,472.136374 887.37137,462.382645 898.284585,457.08612 C895.443742,454.492571 893.972551,450.773158 895.355741,446.850683 C897.784786,439.956739 906.360341,437.293247 911.20602,432.500991 C917.113128,426.65753 921.01671,418.642039 919.460118,410.262861 M927.371071,420.399644 C925.765622,427.37594 921.821386,433.756589 916.328112,438.812825 C914.227377,440.746424 911.929205,442.467935 909.48775,443.946901 L909.194251,444.117234 C907.027514,445.333487 901.70163,447.612164 902.111487,450.341088 C902.533439,453.145595 911.210533,457.535112 913.57527,457.537368 C914.113428,457.537368 914.418046,458.377817 913.868605,458.621491 C909.58252,460.514478 905.839106,461.325596 901.647791,459.325439 C898.847564,462.184096 896.12744,465.142027 893.433264,468.074012 C888.668817,473.262238 890.299086,478.740391 895.928874,482.603075 C904.974894,488.809994 918.725567,488.658826 929.280009,488.207577 C939.903272,487.754073 951.258747,485.38502 959.556761,478.309449 L959.91818,477.994654 C964.428021,473.98408 968.54722,467.188101 961.640572,463.325754 C958.936243,461.812944 956.014169,461.902066 953.446354,461.166531 C951.043258,465.876434 947.145278,469.648869 942.388728,470.376506 C938.544621,470.964445 935.897253,466.133141 939.394094,463.822345 L940.179678,463.334331 C944.570645,460.532039 948.317493,456.215799 948.21821,450.594915 C948.150431,446.692985 942.700961,441.764702 939.150771,445.431015 L938.988291,445.606366 C936.017586,448.954661 930.785049,444.73532 932.738959,441.025241 L932.832755,440.856979 M234.512837,226.386172 C234.499856,225.547978 235.67884,225.234361 236.090638,225.959742 C242.986282,238.090421 246.590926,252.960176 250.264391,266.325019 C254.111601,280.324993 257.217574,294.467111 260.007647,308.713015 C265.658871,337.560182 268.670075,366.241516 268.874712,395.64259 C268.902487,399.840326 262.063253,400.957165 261.394222,396.655642 C256.952444,368.056662 252.69682,339.42835 248.221195,310.837266 C245.96928,296.457115 243.348439,282.132242 240.840419,267.79496 M302.77937,247.515303 C302.271673,245.842301 304.706359,245.282753 305.329133,246.812484 C319.167807,280.779062 323.854408,319.272786 314.969722,355.107531 C313.610224,360.589068 305.580725,358.214375 306.606272,352.801653 M481.282461,217.333795 C481.212512,216.081582 482.838268,215.884161 483.450889,216.746045 C490.008069,225.984223 492.728193,238.356319 504.232591,243.130525 C509.976329,245.514243 516.439867,245.099095 521.514574,249.125357 C524.907113,251.81818 527.508775,256.068938 524.962396,260.147093 C524.141056,261.464738 521.841756,262.124688 520.72708,260.693103 C519.100196,258.607209 518.239368,256.10955 516.029197,254.545975 C512.911942,252.3405 508.708216,252.203997 505.134034,251.167255 C500.510613,249.827048 496.435504,247.481685 493.098247,243.996921 M590.830013,63.25071 C591.505814,62.9066333 592.154537,63.1266167 592.586643,63.7109831 C593.203776,64.543536 593.128185,65.3535264 592.372282,65.9243554 C593.382034,67.9876876 594.574556,73.1567353 594.744916,73.9091916 C595.435383,76.9596292 596.169851,79.9920169 596.938164,83.0221483 C598.48833,89.1331766 599.8467,95.291586 601.397994,101.40487 C603.04293,107.884794 605.002638,114.295902 607.183476,120.614505 C607.324127,121.023637 607.478818,121.441292 607.641197,121.865131 L607.889738,122.505234 L607.950662,122.408216 C608.39405,121.707653 609.316929,122.197257 609.207492,122.937304 C609.105953,123.61192 608.969439,124.283152 608.854361,124.957768 L609.082882,125.562133 C610.509423,129.40131 611.486371,133.444674 608.869028,136.832364 C607.889738,138.099243 606.812294,138.849443 605.469719,139.072811 C603.317086,146.168688 600.616142,153.132575 597.724529,159.820073 L596.877023,161.773117 C592.623525,171.531558 588.087113,181.161784 581.314656,189.469334 C573.920342,198.539422 563.749492,204.732803 557.308518,214.671544 C554.311982,219.294581 552.227042,224.155652 550.534721,229.376594 L549.898105,231.358337 C548.696907,235.051135 547.311038,238.630429 543.846668,240.796556 C542.741018,241.486966 541.0848,241.266983 540.193511,240.325002 C533.089147,232.810592 540.526334,218.77903 544.810163,211.503782 C550.764877,201.386798 559.383304,194.914771 568.013013,187.281908 C577.315138,179.054526 583.248415,168.048584 588.98764,157.206218 C592.503155,150.563845 595.896823,143.778201 599.469877,137.106497 C595.736915,133.807442 594.541979,127.254287 593.27727,122.699329 L593.162032,122.290891 C591.071451,114.996465 589.41072,107.512514 588.361481,99.9958481 C587.351663,92.7684451 586.930484,85.6449697 587.197647,78.3771244 L587.274745,76.5257414 M604.709641,97.649132 C603.884917,96.5187553 605.250056,95.2383387 606.381654,95.4741158 C613.261737,96.8966368 619.988264,101.060836 626.163168,104.428059 L626.822636,104.785622 C631.751803,107.443473 636.711432,110.699229 639.299555,115.862636 C642.114483,121.474523 641.882583,127.938219 641.498688,134.036845 L641.462342,134.607485 C640.991876,141.921089 640.916286,149.520108 639.368376,156.701723 C638.57637,160.377139 635.24701,161.412754 632.400526,160.544101 C629.013628,171.237554 619.499399,179.116347 612.5496,187.554688 C603.688607,198.312444 605.356108,212.836995 606.282371,225.793458 C606.656938,231.039217 600.131348,232.530593 596.770399,229.731726 L589.024917,223.298933 C587.735034,222.225213 586.446865,221.149361 585.162205,220.069375 C584.06182,219.143563 582.971463,218.210733 581.890133,217.266204 L580.274781,215.840051 C579.558366,215.199279 576.398238,211.66939 575.474231,211.522734 C573.236155,211.167001 567.91894,217.06483 566.099177,218.914639 L565.868616,219.145444 C562.443359,222.503858 559.348667,226.117228 556.466081,229.949453 C555.93582,230.6534 554.898991,230.069034 555.278071,229.255659 C557.860976,223.723285 560.864317,218.433833 564.430326,213.483044 L565.151072,212.49743 C567.523706,209.300337 570.708655,203.655223 574.896585,202.710986 C580.010285,201.558869 585.116415,206.686552 588.837005,209.532497 L589.072594,209.710973 C590.842762,211.038771 592.592622,212.390259 594.339098,213.750772 C594.156327,204.104214 595.374798,194.357254 600.355863,186.044135 C603.867993,180.181293 609.129984,175.839157 613.632686,170.800972 C618.645341,165.190829 621.262797,158.295757 625.800474,152.453221 C626.384889,151.701893 627.190434,151.296898 628.062543,151.168292 C628.236903,146.471209 628.928751,141.727509 629.46336,137.081281 L629.618351,135.69048 C630.158765,130.642141 631.435903,124.475835 628.963986,119.747882 C626.628997,115.282218 621.271463,112.130044 617.304138,109.100118 L614.06475,106.587579 M381.419611,44.2685047 C379.34821,45.4665685 377.412195,46.9568156 375.655566,48.8193424 C370.126189,54.6844404 366.172927,61.9833795 362.325717,69.004801 C360.254316,72.7862606 358.257377,76.6094607 356.169053,80.3818953 C355.260841,82.0233105 354.326679,83.6466758 353.382364,85.2677848 C352.945745,86.0146005 351.648299,87.499207 351.005217,88.4141127 C351.719774,89.4152259 352.458567,90.4009718 353.212181,91.3760561 C353.499713,91.7480874 373.334559,113.353122 380.248525,121.808733 C390.835686,134.760683 400.299145,148.4414 408.389568,163.084402 C416.311887,177.423941 422.343319,192.606186 429.682351,207.223242 C433.355816,214.541359 437.458002,221.807582 442.687274,228.14085 C442.889225,228.387909 443.102457,228.62143 443.30892,228.865104 C445.30466,223.473992 450.418573,217.701744 452.930248,214.387302 L453.164998,214.074317 C458.861351,206.396329 464.876988,198.949607 471.023498,191.629233 C476.637491,184.944744 482.394113,178.404653 488.290194,171.972517 L490.507755,169.565454 C494.615582,165.128557 499.833572,158.489568 505.846953,155.31955 C505.202742,154.171123 504.456993,153.035106 503.59955,151.913754 C497.965249,144.551922 490.000732,139.209191 482.141839,134.388378 L477.045296,131.288415 C457.834166,119.582153 438.922314,107.333352 422.244036,92.1233726 C413.420274,84.0753616 404.718359,75.6449177 397.30148,66.2578278 L394.678449,62.9387656 M413.474428,38.4733501 C404.47805,39.2280627 394.762999,39.0486915 386.449189,41.9795483 C393.84012,48.9659981 400.865508,56.5097393 408.082694,63.6135135 C408.724647,58.8088487 410.037888,54.0628461 411.150308,49.377762" id="ðŸ–-Ink" fill="#000000"></path>
                    </g>
                    <g id="Group" transform="translate(162.462841, 0.000000)">
                        <path d="M542.198215,299.169196 C541.749186,273.897042 541.252772,248.119491 537.495819,223.093267 C533.822354,198.626592 523.716941,176.510919 506.351471,158.744151 C469.466769,121.005139 416.000706,111.787267 366.232928,103.339901 L281.144154,88.8965757 C255.185077,84.4912655 227.490807,77.4495379 201.263216,83.6970687 C188.339524,86.7757093 177.364258,93.9279927 167.333307,102.390024 C157.664512,110.546335 147.269148,119.305061 140.717609,130.278289 C134.154788,141.26731 131.897232,154.113217 129.763779,166.541719 C127.357299,180.554103 125.487848,194.675914 124.15994,208.831569 C121.498483,237.192516 121.135198,265.766678 123.065572,294.186288 C124.000862,307.970791 125.488976,321.71581 127.388889,335.399911 C128.330947,342.185555 129.395981,348.954278 130.598658,355.69931 C130.952917,357.688186 131.22256,359.890277 131.585845,362.11493 C128.901824,369.747793 127.376478,377.652533 127.499454,385.523429 C127.86161,408.70856 147.432739,423.30531 167.162946,431.142362 C178.603037,435.686431 190.563234,438.774097 201.80363,443.850639 C213.628441,449.190033 221.67712,457.8461 229.761902,467.720538 C245.181203,486.553381 262.581648,503.479699 282.450626,517.601511 C324.575882,547.542955 377.93138,561.70425 429.043989,550.955519 C441.307675,548.376635 453.67967,544.371808 464.70345,538.337492 C476.342106,531.966996 485.093662,522.735587 492.442848,511.821022 C506.088597,491.558851 515.874725,468.742616 523.278066,445.524769 C530.829203,421.841009 536.189347,398.114381 539.11255,373.418697 C542.025599,348.803109 542.639347,323.937079 542.198215,299.169196 L542.198215,299.169196 Z" id="ðŸŽ¨-Background" fill="#FFFFFF"></path>
                        <path d="M270.671282,0.862232658 C305.882842,-3.98078827 354.482918,11.7598759 372.018749,43.4984156 C455.738999,23.7630771 561.331936,23.1166641 630.334634,88.8150126 C702.336126,166.747827 611.898489,269.502675 551.930528,292.669755 C556.296716,313.886316 549.489073,449.807904 501.319975,510.436479 C463.09157,561.806571 374.067585,585.514021 332.873106,524.15668 L332.551774,523.650411 C328.138387,516.564388 331.93938,516.791925 336.469852,522.062888 C376.808017,557.53325 431.653886,558.139051 473.917912,520.70576 C553.127563,452.285256 544.960422,284.52247 507.269047,187.469143 C399.942046,175.682541 285.028933,208.209636 210.89963,288.993211 L215.912285,319.168176 C216.766343,324.309021 217.736607,329.445353 218.476716,334.604247 C218.950565,337.90964 219.003592,341.196983 216.713317,343.872885 C209.150898,352.706068 196.405464,339.432603 185.918715,334.152999 C182.822896,333.717545 179.721435,333.549455 176.67977,333.763798 C126.295988,340.252746 136.223143,437.981818 191.598144,420.851309 C196.250899,417.953168 200.248161,418.837614 202.053304,423.043247 C215.25228,435.132186 223.955323,456.692823 245.884419,477.459264 C253.621711,485.248935 260.662895,491.766087 269.365938,498.014746 C274.477876,503.183793 289.902818,508.454372 285.013138,517.299964 C275.766296,537.427888 221.238584,474.20238 211.597995,456.717642 C181.39232,468.644131 147.91821,464.59305 116.615911,461.677987 C-48.5207778,453.092991 -26.4754755,279.035292 108.883132,169.143955 C134.362718,150.387825 162.474427,135.087127 191.696299,123.312935 C195.685664,121.705363 193.942573,115.155496 189.896798,116.78563 C170.561465,124.577558 151.712394,133.851836 133.744457,144.585901 L133.717254,138.168495 C133.690929,127.359691 133.860474,116.10669 135.738011,106.230936 C136.676685,99.3877571 138.255056,92.0786649 140.68523,86.580206 C143.689664,69.7227027 190.753112,11.8591505 270.671282,0.862232658 Z M174.475917,356.200533 C177.025681,353.778459 181.785616,356.666447 184.055582,356.594247 C189.860243,357.388444 195.374954,359.83985 199.675706,362.865469 C202.51542,364.456119 204.50559,365.94975 206.168577,367.323801 L206.213706,367.311391 C206.201296,367.311391 206.185501,367.323801 206.171962,367.327185 L206.32849,367.432945 C208.749944,369.153236 217.614182,378.842924 212.013854,376.23708 C211.596415,375.694454 211.168822,375.173263 210.737844,374.662224 C210.691587,374.732167 210.627279,374.800983 210.550561,374.867542 L210.865135,375.334343 C215.625062,382.493945 207.406965,374.951023 206.142628,372.947481 C206.082833,372.99599 206.01514,373.028706 205.948576,373.063677 L207.59513,375.06749 C207.825325,375.351982 208.006297,375.579104 208.156491,375.771166 L208.503698,376.106325 C214.007135,381.515316 214.179069,386.383212 207.785308,378.386149 C208.0369,378.762942 208.23885,379.162296 208.267055,379.516526 L208.645964,379.999506 C213.666109,386.467899 209.582817,384.170708 207.088231,381.408079 L206.87948,381.170453 L206.922194,381.234973 C209.242908,384.809753 204.638297,382.301496 203.824638,380.38931 L203.790302,380.302826 C202.903676,379.579475 202.358082,378.76768 202.170947,378.56268 L202.13634,378.528293 C197.819794,374.106061 191.562718,370.364085 186.247702,368.664008 C185.477132,368.517352 184.697536,368.400028 183.910043,368.316547 C180.713812,367.603575 177.482607,367.115098 174.217556,366.851118 C173.818168,366.803737 173.413139,366.510426 173.110778,366.131377 C168.173521,365.964884 169.697589,363.941309 171.746018,363.565533 L171.781869,363.559366 L171.375484,363.525161 C168.206959,363.215954 166.04304,362.079188 169.246825,361.381481 L169.652802,361.300766 C169.60316,361.222926 169.55916,361.145085 169.516288,361.067245 C166.772471,360.766037 168.562947,358.09916 170.086036,358.744445 C169.44521,356.649525 172.374054,357.695293 172.739595,357.383932 C173.018264,357.074827 173.364626,356.801822 173.56432,356.787156 C174.446583,356.164434 174.01899,356.22084 174.475917,356.200533 Z M191.264193,322.282916 L190.621111,322.65858 C190.101004,322.962045 189.566231,323.163978 189.029201,323.282431 C189.787361,323.605073 190.536495,323.953663 191.277732,324.325942 C191.265697,323.870934 191.257173,323.416427 191.257173,322.962756 L191.264193,322.282916 Z" id="ðŸ–-Ink" fill="#000000"></path>
                    </g>
                    <g id="ðŸ–-Ink" transform="translate(458.055508, 262.853095)" fill="#000000">
                        <path d="M155.548762,187.174192 C147.891662,190.1841 138.845011,190.895054 130.941494,188.330556 C123.38427,185.877807 116.522007,180.41917 112.369768,173.554182 C108.671455,167.439681 107.126965,160.183536 109.312679,152.949829 C109.417242,152.603587 109.756454,152.382161 110.083685,152.295791 C111.871855,153.923635 112.976631,155.5404 114.080443,157.149266 C115.94137,159.861673 117.80643,162.546239 120.36663,164.865235 C124.091602,168.23891 129.110296,170.978955 134.09116,171.882597 C138.967974,172.769331 143.959242,171.98569 148.325979,169.651591 C150.981591,168.23319 153.128762,166.33643 155.254945,164.431245 C157.57018,162.356658 159.848732,160.250491 163.037385,159.079022 C165.592642,158.140084 168.276729,158.932383 170.338701,160.503018 C172.554901,162.191133 174.148566,164.833585 174.060215,167.596155 C173.923384,171.876294 172.049653,175.446646 169.330927,178.392317 C165.655382,182.374676 160.458399,185.244063 155.548762,187.174192 Z M146.458054,80.51028 C154.977624,85.6884035 167.958835,97.762779 158.793737,110.599979 C148.00554,121.918963 132.472973,108.940976 124.818792,103.071537 C117.721478,98.5226888 109.747248,110.221984 116.33214,115.533531 C171.641407,156.478928 194.087078,81.8642863 150.767133,74.4220748 C145.997452,73.6019752 144.22598,78.9083705 146.458054,80.51028 Z M56.848183,8.76311353 C68.4597618,8.20807828 78.6926632,13.4222508 89.7581864,15.7913036 C99.9843185,17.9821135 110.05927,16.6667251 120.004476,13.8802677 C136.144706,9.35763299 142.816964,34.06347 126.896736,38.8782879 C115.303208,42.3844861 103.095933,42.6281602 91.1989158,40.8209113 C80.6309349,39.2144678 71.7721983,34.0702387 61.6961187,31.075079 C53.0489091,28.5059553 42.8765273,29.5736819 33.7445937,30.7832322 L30.1997674,31.2600907 C24.9310079,31.9696785 19.634043,32.6815225 14.4171813,33.7114964 C9.8907865,34.6060959 5.37228928,36.2429986 0.752252793,36.4325228 C0.227633266,36.4550853 -0.216883064,35.7737005 0.113683648,35.319068 C5.48047248,27.9517899 15.8240524,22.1386862 24.051843,18.2615118 L24.6094669,18.0001634 C34.7656496,13.265442 45.5400937,9.30235508 56.848183,8.76311353 Z M52.5940562,63.0884074 L52.5926013,62.8342577 C52.6083963,55.6404741 56.7985946,39.2155008 67.1557235,39.2155008 C73.6260051,39.2155008 77.5542941,50.3938252 78.2343431,61.9170732 L78.2579623,62.386906 C78.5582692,69.5510629 76.5921125,85.2106637 67.1557235,85.2106637 C57.6194718,85.2106637 52.6921064,70.3790717 52.5940562,63.0884074 L52.5940562,63.0884074 Z M205.078152,63.0884074 L205.079607,62.8342577 C205.063812,55.6404741 200.873614,39.2155008 190.516485,39.2155008 C184.20796,39.2155008 180.315917,49.8418957 179.494949,61.0536459 L179.437865,61.9170732 C179.029345,68.8393532 180.868043,85.2106637 190.516485,85.2106637 C200.052737,85.2106637 204.980102,70.3790717 205.078152,63.0884074 L205.078152,63.0884074 Z M204.91938,0.0013091233 L205.660178,0.0175856446 C217.763658,0.437246438 230.2135,7.60645167 233.444705,19.649137 C233.611681,20.2741157 232.841111,20.6949046 232.384184,20.2662189 C222.432072,10.9493915 209.047647,19.8518764 199.082077,24.5182225 L195.421696,26.2090555 C182.574462,32.1855833 167.96262,39.2120402 153.698024,34.7580537 C146.923099,32.6428279 142.620091,25.682325 144.552721,18.6518786 C146.272018,12.3964677 153.823248,7.13942008 160.363662,9.39725145 L160.660233,9.50507832 C165.974121,11.5375752 172.507891,9.47828546 177.995973,7.44798211 L182.504217,5.7551905 C189.753583,3.00461825 197.03647,-0.0726958014 204.91938,0.0013091233 L204.91938,0.0013091233 Z" id="Shape"></path>
                    </g>
                    <g id="ðŸ–-Ink" transform="translate(298.976751, 263.981213)" fill="#000000">
                        <path d="M400.61727,71.5588101 C397.42668,80.2408248 392.570847,89.2793255 386.633057,96.5861614 C362.608867,116.928429 339.26499,105.665275 327.411974,78.0951397 C322.908143,58.6113721 334.866084,37.6238199 347.537056,23.2910501 C365.836687,4.95119649 395.701641,14.5763199 404.115861,36.378375 C404.626942,39.2031885 404.936073,42.0212333 405.083869,44.8302531 C404.908996,53.9578754 403.808987,61.758828 400.61727,70.4306896 M169.694421,54.0492531 C201.343081,16.4072593 260.551753,14.3946925 259.041075,72.3293163 C252.242457,145.661656 137.761451,127.662494 169.694421,54.0492531 Z M410.571502,22.6480214 C409.462468,20.7697009 408.231586,18.9522989 406.887883,17.2138654 C406.391469,16.9182978 406.106031,14.296546 404.280581,14.1025093 C379.880696,-12.8133156 337.01646,2.45805038 321.528337,29.2779851 C318.699905,32.6691151 316.392707,36.6389708 314.69136,40.8333225 C299.431137,38.0344557 281.64033,38.5782098 267.447398,44.341777 C253.374056,7.59663886 210.767053,4.3160647 182.68919,20.0161165 C165.225565,28.6044972 153.901681,46.590121 136.917546,56.4701995 C96.9911803,59.3435222 54.140483,50.3986555 14.9350452,60.4129804 C-15.9847887,66.8410105 9.86259492,82.4959375 15.0478666,72.0484143 C52.0115431,61.1282087 95.8031709,70.3562337 134.181627,67.8958031 C138.17212,74.6453475 145.824796,80.168625 153.451523,79.9328479 C161.688614,152.945929 268.173967,140.838941 271.847432,75.9347891 C276.013927,69.347694 281.195814,63.0437572 288.612693,58.9396551 C291.452408,58.3519044 294.195096,57.5881669 296.701988,56.4058967 C300.986945,55.8012241 307.589253,57.617498 311.531233,61.1846147 C325.034827,142.20171 402.830826,132.766111 416.733807,61.7915435 C417.01022,61.5095134 417.783046,60.4513365 418.376487,58.7535152 C423.135294,52.4619877 434.785232,50.1233941 432.923679,39.5021404 C431.266332,28.8786305 417.849611,29.00498 410.571502,22.6480214 Z" id="Shape"></path>
                    </g>
                </g>
            </g>
        </g>
    </g>
</svg>